<?xml version="1.0" encoding="utf-8"?>
<!-- Generator: Adobe Illustrator 25.2.1, SVG Export Plug-In . SVG Version: 6.00 Build 0)  -->
<svg version="1.1" id="Layer_1" xmlns="http://www.w3.org/2000/svg" xmlns:xlink="http://www.w3.org/1999/xlink" x="0px" y="0px"
	 viewBox="0 0 270 250" style="enable-background:new 0 0 270 250;" xml:space="preserve">
<style type="text/css">
	.st0{fill:url(#SVGID_1_);}
	.st1{fill:url(#SVGID_2_);}
	.st2{fill:url(#SVGID_3_);}
	.st3{fill:url(#SVGID_4_);}
	.st4{fill:#E27B5A;}
	.st5{fill:#FFCEB0;}
	.st6{fill:#FB4C47;}
	.st7{fill:#128E5A;}
</style>
<g>
	
		<linearGradient id="SVGID_1_" gradientUnits="userSpaceOnUse" x1="73.5087" y1="165.8501" x2="85.2727" y2="206.6974" gradientTransform="matrix(1 0 0 1 0 1)">
		<stop  offset="0" style="stop-color:#FFD0D0"/>
		<stop  offset="1" style="stop-color:#FFF8F8"/>
	</linearGradient>
	<path class="st0" d="M107.6,212.7c-11.3,4.1-22.8,5.9-35,3.5C59,213.6,47.2,202,40.6,190.3c-2.4-4.3-4.4-9.1-4.2-14.1
		c0.6-11.5,11.5-12.8,20.7-10.9c5.2,1.1,9.9,3.4,14.7,5.7c7.8,3.9,17,5.8,24,11.2c2.4,1.8,4.1,4,6.9,5.4c4.3,2.1,9.1,3.1,13.5,4.9
		c3.7,1.6,7.9,4.3,7.9,8.3c0,4.1-4.4,6.8-8.2,8.5C112.9,210.7,110.3,211.8,107.6,212.7z"/>
	
		<linearGradient id="SVGID_2_" gradientUnits="userSpaceOnUse" x1="245.6246" y1="108.2223" x2="113.9574" y2="77.8187" gradientTransform="matrix(1 0 0 1 0 1)">
		<stop  offset="0" style="stop-color:#FFF8F8"/>
		<stop  offset="1" style="stop-color:#FFD0D0"/>
	</linearGradient>
	<path class="st1" d="M65.8,64.6c18.6-27.4,57-38.4,88.1-28.1c15,5,27.6,15.3,39.2,26c10.3,9.5,20.1,19.7,27.2,31.8
		c4.7,8.3,8.2,18.3,10.6,27.5c3.6,13.9,0.3,31.8-17.7,30.5c-4.2-0.3-7.9-1.8-11.8-3.1c-3.2-1.1-6.3-0.5-9.6-0.9
		c-8.3-1.3-16.4-4.4-23.9-8c-15.5-7.3-29.6-17.3-45.5-23.7c-13.1-5.3-27-8-41.1-8c-6,0-12.2,0.4-17.5-2.2
		c-13.1-6.6-7.2-24.2-2.3-34.1C62.7,69.6,64.1,67.1,65.8,64.6z"/>
	
		<linearGradient id="SVGID_3_" gradientUnits="userSpaceOnUse" x1="229.1107" y1="64.2883" x2="183.9373" y2="44.994" gradientTransform="matrix(1 0 0 1 0 1)">
		<stop  offset="0" style="stop-color:#FFD0D0"/>
		<stop  offset="1" style="stop-color:#FFF7F7"/>
	</linearGradient>
	<path class="st2" d="M211.5,68.8c3.1,2.8,15.1,10.3,15.3,1.5c0.1-2.2-0.9-4.4-2.3-6c-1.5-1.8-3.4-2.8-4.5-5c-1.5-2.6-3.2-5-5-7.3
		c-3.8-4.7-8.3-9.1-13.8-11c-3.8-1.4-10.3-1-12.1,3.9c-2.7,7.1,8.6,8.4,12.1,11c3.3,2.4,5.1,6.7,7.7,10
		C209.6,66.9,210.5,67.9,211.5,68.8z"/>
	
		<linearGradient id="SVGID_4_" gradientUnits="userSpaceOnUse" x1="220.5949" y1="189.8801" x2="38.9957" y2="84.7161" gradientTransform="matrix(1 0 0 1 0 1)">
		<stop  offset="0" style="stop-color:#FFCFCF"/>
		<stop  offset="1" style="stop-color:#FFF8F8"/>
	</linearGradient>
	<path class="st3" d="M154.9,60.1c6.5,3.8,11.3,9.5,17.2,14.2c9.9,7.7,23.3,9.2,34.6,14.5c11.5,5.4,20.2,13.8,24.1,26
		c5,15.7,5.6,34.3,1.2,50.5c-4.7,17.7-15.9,29.5-32.2,37.4c-16.3,7.9-34.3,11.6-52.3,12.3c-1.8,0.1-3.4,0.1-5.2,0.2
		c-39.1,0.2-91.1-13.5-104.4-55.5c-0.2-0.4-0.2-0.8-0.4-1.1c-1.4-4.7-2.1-9.5-2.4-14.4c-0.8-17.3,2.2-36.3,8.3-52.5
		c4.1-10.9,12.9-20.1,22-26.7c13-9.3,28.8-11.6,44.6-12.7c11.7-0.8,24.8-1.1,35.8,3.4C149,56.9,152,58.4,154.9,60.1z"/>
	<path class="st4" d="M81.8,86.5c0,0,39.7,53,49.6,57.5c9.9,4.4,22.4,3.4,23.5,8.5s-20.9-3.5-17.4,4.4c3.5,7.9,17.1,16.8,17.2,24.7
		c0.1,7.9-21.7-17-21.7-17s20.5,22.8,13.7,23.3s-24.4-21.7-24.4-21.7s19.7,29.2,13.2,26.5c-6.4-2.7-66.9-72.6-76.2-79.9
		C50,105.3,81.8,86.5,81.8,86.5z"/>
	<path class="st5" d="M197.4,99.5c0,0-45.3,48.3-55.7,51.6c-10.3,3.3-22.6,0.9-24.3,5.8c-1.6,5,21.1-1.2,16.8,6.2
		c-4.4,7.4-18.9,14.8-19.8,22.7c-0.9,7.9,23.5-14.5,23.5-14.5S115,191.7,121.7,193c6.7,1.3,26.6-18.9,26.6-18.9s-22.7,26.9-16,24.9
		c6.8-1.9,74.5-64.7,84.6-71.1C226.9,121.6,197.4,99.5,197.4,99.5z"/>
	<path class="st6" d="M158.8,133c0,0,13.9,26.4,26.8,29.2c12.8,2.8,40.5-22.3,46.5-34.7c6-12.4-23.4-50-29.7-55.3
		C193.3,71.1,152.3,109.5,158.8,133z"/>
	<path class="st7" d="M72.3,61c0,0,45.8,45.2,43.7,56.9s-19.7,25.8-33.8,30.4c-14.2,4.6-45-13.9-45-27.5C35,97.8,46.7,74,72.3,61z"
		/>
</g>
</svg>
