<?xml version="1.0" encoding="utf-8"?>
<!-- Generator: Adobe Illustrator 25.2.1, SVG Export Plug-In . SVG Version: 6.00 Build 0)  -->
<svg version="1.1" id="Layer_1" xmlns="http://www.w3.org/2000/svg" xmlns:xlink="http://www.w3.org/1999/xlink" x="0px" y="0px"
	 viewBox="0 0 270 250" style="enable-background:new 0 0 270 250;" xml:space="preserve">
<style type="text/css">
	.st0{fill:url(#SVGID_1_);}
	.st1{fill:url(#SVGID_2_);}
	.st2{fill:url(#SVGID_3_);}
	.st3{fill:url(#SVGID_4_);}
	.st4{fill:#FB4C47;}
	.st5{fill:#000C3E;}
	.st6{fill:#FFCEB0;}
	.st7{fill:#EE9B68;}
	.st8{fill:#41294A;}
	.st9{fill:#FFFCF6;}
	.st10{fill:#FFBD96;}
	.st11{fill:#D9423D;}
	.st12{fill:#B43936;}
	.st13{fill:#FFD310;}
	.st14{fill:none;stroke:#FFD310;stroke-width:1.2868;}
</style>
<g>
	
		<linearGradient id="SVGID_1_" gradientUnits="userSpaceOnUse" x1="73.242" y1="165.917" x2="85.01" y2="206.7785" gradientTransform="matrix(1 0 0 1 0 1)">
		<stop  offset="0" style="stop-color:#FFD8D8"/>
		<stop  offset="1" style="stop-color:#FFF8F8"/>
	</linearGradient>
	<path class="st0" d="M107.4,212.7c-11.4,4-22.8,5.8-35,3.6C58.7,213.6,47,202,40.3,190.4c-2.4-4.3-4.4-9.2-4.2-14.1
		c0.6-11.4,11.4-12.8,20.7-10.9c5.2,1,9.9,3.4,14.7,5.8c7.8,3.9,17,5.8,24,11.3c2.4,1.8,4.1,4,6.9,5.4c4.3,2.1,9.1,3.1,13.5,4.9
		c3.7,1.6,7.9,4.3,7.9,8.4c0,4.2-4.3,6.8-8.1,8.4C112.9,210.7,110.2,211.7,107.4,212.7z"/>
	
		<linearGradient id="SVGID_2_" gradientUnits="userSpaceOnUse" x1="204.846" y1="130.0241" x2="81.3518" y2="52.0638" gradientTransform="matrix(1 0 0 1 0 1)">
		<stop  offset="0" style="stop-color:#FFF8F8"/>
		<stop  offset="1" style="stop-color:#FFCFCF"/>
	</linearGradient>
	<path class="st1" d="M65.7,64.6c18.5-27.4,57-38.4,88.1-28.1c15,5,27.6,15.3,39.2,26c10.3,9.5,20.1,19.6,27.1,31.8
		c4.7,8.3,8.2,18.2,10.6,27.5c3.6,13.9,0.3,31.9-17.7,30.5c-4.2-0.3-7.9-1.8-11.8-3.2c-3.2-1.1-6.3-0.4-9.6-0.9
		c-8.4-1.3-16.4-4.4-24-8c-15.5-7.3-29.7-17.3-45.5-23.8c-13-5.3-27-8-41-8c-5.9,0-12.2,0.4-17.5-2.2c-13.1-6.5-7.2-24.2-2.3-34.2
		C62.6,69.6,64,67.1,65.7,64.6z"/>
	
		<linearGradient id="SVGID_3_" gradientUnits="userSpaceOnUse" x1="229.0776" y1="64.2402" x2="183.8894" y2="44.9392" gradientTransform="matrix(1 0 0 1 0 1)">
		<stop  offset="0" style="stop-color:#FFD7D7"/>
		<stop  offset="1" style="stop-color:#FFF9F9"/>
	</linearGradient>
	<path class="st2" d="M211.4,68.7c3.1,2.8,15.1,10.3,15.3,1.4c0.1-2.2-0.9-4.3-2.3-6c-1.6-1.9-3.3-2.8-4.6-5
		c-1.5-2.6-3.2-5.1-5.1-7.3c-3.9-4.7-8.4-9.1-13.8-11c-3.8-1.3-10.3-1-12.2,3.9c-2.7,7.1,8.7,8.4,12.2,11c3.3,2.4,5.1,6.7,7.7,10
		C209.5,66.9,210.4,67.9,211.4,68.7z"/>
	
		<linearGradient id="SVGID_4_" gradientUnits="userSpaceOnUse" x1="220.5909" y1="189.8269" x2="38.9294" y2="84.627" gradientTransform="matrix(1 0 0 1 0 1)">
		<stop  offset="0" style="stop-color:#FFCFCF"/>
		<stop  offset="1" style="stop-color:#FFF8F8"/>
	</linearGradient>
	<path class="st3" d="M154.9,60.1c6.5,3.8,11.4,9.5,17.3,14.1c9.9,7.7,23.3,9.2,34.6,14.5c11.5,5.4,20.2,13.9,24.1,26
		c5.1,15.7,5.5,34.4,1.3,50.5c-4.7,17.8-15.9,29.6-32.2,37.5c-16.3,7.9-34.3,11.5-52.3,12.3c-1.7,0.1-3.5,0.1-5.2,0.2
		c-39.1,0.2-91.2-13.6-104.5-55.6c-0.2-0.4-0.2-0.8-0.4-1.2c-1.3-4.7-2.2-9.5-2.4-14.4c-0.9-17.3,2.2-36.3,8.2-52.5
		C47.5,80.7,56.2,71.5,65.4,65c12.9-9.2,28.8-11.6,44.6-12.7c11.7-0.8,24.8-1.1,35.8,3.3C148.9,56.9,151.9,58.3,154.9,60.1z"/>
	<path class="st4" d="M179.8,210.4c-50.1,14.6-89.6,1.6-104.2-7.3L62,192.7l4.7-7.8l29.2-2.6l48.5-2.6l39.1,7.8l7.5-3.8l1.3,13.8
		C194.2,208.2,192.9,205.6,179.8,210.4z"/>
	<path class="st4" d="M86.6,204.2h85.8c0,0,7.7-64-3.6-70.2s-64.1-5-75.8,0.4C81.2,139.7,86.6,204.2,86.6,204.2z"/>
	<path class="st5" d="M90.6,120.4c-0.2,0-0.3-0.1-0.5-0.2c-0.1-0.1-7.5-7.3-2.4-20c1.8-4.4,3.5-7.6,4.9-10.3c2.7-5,4.6-8.5,5.4-16.5
		c0.1-0.4,0.4-0.6,0.8-0.6c0.4,0.1,0.7,0.4,0.6,0.8c-0.9,8.2-3,12.1-5.6,17c-1.4,2.7-3.1,5.8-4.9,10.2c-4.7,11.8,2,18.3,2.1,18.4
		c0.3,0.2,0.3,0.7,0,1C90.9,120.4,90.8,120.4,90.6,120.4z"/>
	<path class="st5" d="M138.3,45.1c-0.2,5.4-4.7,9.6-10.2,9.5c-5.4-0.2-9.6-4.7-9.5-10.2c0.2-5.4,4.7-9.6,10.2-9.5
		C134.3,35.1,138.4,39.7,138.3,45.1z"/>
	<path class="st5" d="M89.9,116.6c0,0,2.4,6.2,14,9.1c11.6,2.9,21.1-0.6,29.9,3.2c8.8,3.9,22.2,0.6,25-3c2.8-3.6,5.4-45.8-1.3-53.3
		c-6.6-7.6-43.6-16.2-52.2-8.4C96.6,71.8,85.2,111.5,89.9,116.6z"/>
	<path class="st5" d="M162.7,85.9c-0.6,17.8-15.7,31.8-33.5,31.1c-17.8-0.7-34.4-16.5-33.7-34.3c0.6-17.8,15.8-30.8,33.6-30.1
		C146.9,53.1,163.3,68,162.7,85.9z"/>
	<path class="st6" d="M143.6,112.9c0,0,2.1,25.2,0,28c-2.1,2.8-15.4,0.7-18.9,0c-3.5-0.7-4.9-28-2.8-28
		C124,112.9,143.2,107.3,143.6,112.9z"/>
	<path class="st6" d="M104,83.4c0,0,1.3,39.3,27.9,41s26.5-53.7,16.9-58.9C139.1,60.2,99.1,61.2,104,83.4z"/>
	<path class="st7" d="M135.4,91.8c0,0,5.1,12.1,3.8,12.9c-1.3,0.8-5.1,0.6-6.2-0.2C132,103.5,133.4,90.4,135.4,91.8z"/>
	<path class="st5" d="M124.9,62.4c0,0-9.5,4.6-11.3,13.3s-0.9,30.8-11,29.7C102.6,105.4,83,61.6,124.9,62.4z"/>
	<path class="st5" d="M129.8,62.7c-0.9,0.6,9.8,0.6,15.9,8c6.1,7.4,7.6,25.9,8.5,26.3c0.9,0.3,4.7-22.9-2-29.9
		C145.5,60,134.7,59.1,129.8,62.7z"/>
	<path class="st7" d="M122.3,120.8c0,0,10.3,5.8,21.1,0.4c0,0,0.9,6.6,0,8.1c-0.9,1.5-17.8,2.6-21.1-4.9
		C122.2,124.4,121.3,120.4,122.3,120.8z"/>
	<path class="st6" d="M151.7,98.5c0,0,2.1-9.9,5.6-6.4c3.5,3.5,0.2,13.7-3.2,14.8C150.6,107.9,149.8,103.5,151.7,98.5z"/>
	<path class="st6" d="M110.1,96.9c0,0-1.8-10-6.5-6.9c-4.7,3.2-1.4,13.7,2.8,15C110.8,106.3,112.2,102.1,110.1,96.9z"/>
	<path class="st8" d="M141,86.3c0,0,4.4-2.9,7.7,0.2c2.8,2.8-3.2,0.9-5.3,1.6C141.4,88.8,138.5,88.9,141,86.3z"/>
	<path class="st8" d="M129.4,87c0,0-4.2-3.2-7.7-0.2c-3,2.7,3.2,1.1,5.1,1.9C129,89.4,131.8,89.7,129.4,87z"/>
	<path class="st9" d="M124.9,90.2c-4.1,0-7.5,3.2-7.7,7.3c-0.2,4.2,3.2,7.7,7.3,7.9h0.3c4.1,0,7.5-3.2,7.7-7.3
		c0.1-2.1-0.6-4-2.1-5.5c-1.4-1.5-3.3-2.4-5.3-2.4L124.9,90.2z M124.9,106.5c-0.1,0-0.2,0-0.3,0c-4.7-0.2-8.4-4.2-8.3-8.9
		c0.2-4.7,4.2-8.4,8.9-8.3c2.3,0.1,4.4,1,6,2.8c1.6,1.7,2.4,3.9,2.3,6.2C133.2,102.8,129.4,106.5,124.9,106.5z"/>
	<path class="st9" d="M116.7,98c-0.1,0-0.2,0-0.2,0l-7.2-3c-0.2-0.1-0.4-0.4-0.2-0.6c0.1-0.2,0.4-0.4,0.6-0.2l7.2,3
		c0.2,0.1,0.4,0.4,0.2,0.6C117.1,97.9,116.9,98,116.7,98z"/>
	<path class="st5" d="M133.4,66.1c0,0-1.1,15.2,4.8,17.2c5.8,2,17.2,1.7,17.8-0.6c0.7-2.3-11.2-21.1-19.7-24.1
		c-14.9-5.3-28.6,16.8-26.8,22.6c1.7,5.8,19.6,3.4,22.3,2.6C134.5,83.3,132.8,70.3,133.4,66.1z"/>
	<path class="st9" d="M133.4,98.2c-0.2,0-0.5-0.2-0.5-0.5c0-0.2,0.2-0.5,0.5-0.5l4.8-0.4c0.2,0,0.5,0.2,0.5,0.5
		c0,0.2-0.2,0.5-0.5,0.5L133.4,98.2C133.5,98.2,133.5,98.2,133.4,98.2z"/>
	<path class="st5" d="M122.3,54.5c-0.1,0-0.2,0-0.3-0.1c-2.8-1.5-4.6-3.6-5.1-6.1c-1.1-5.7,4-11.8,4.3-12c0.2-0.3,0.7-0.3,1-0.1
		c0.3,0.2,0.3,0.7,0.1,1c-0.1,0.1-4.9,5.8-3.9,10.8c0.4,2.1,1.9,3.9,4.3,5.1c0.3,0.2,0.5,0.6,0.3,0.9
		C122.8,54.4,122.6,54.5,122.3,54.5z"/>
	<path class="st5" d="M133.6,56.3c-0.2,0-0.4-0.1-0.6-0.2c-0.2-0.3-0.2-0.8,0.1-1c0.1-0.1,5.8-4.9,5.7-10c-0.1-2.1-1.2-4.1-3.4-5.8
		c-0.3-0.2-0.4-0.7-0.2-1s0.7-0.4,1-0.2c2.6,1.9,3.9,4.2,3.9,6.9c0.2,5.8-5.9,10.9-6.2,11.1C133.9,56.2,133.8,56.3,133.6,56.3z"/>
	<path class="st5" d="M156.4,124.5c-0.2,0-0.5-0.1-0.6-0.3c-0.2-0.3-0.2-0.8,0.2-1c0.3-0.2,7-4.8,5.9-13.4
		c-0.4-3.4-1.3-7.1-2.3-11.1c-1.7-6.9-3.5-14.1-3-20.9c0-0.4,0.4-0.7,0.8-0.6c0.4,0,0.7,0.4,0.6,0.8c-0.4,6.5,1.3,13.7,3,20.4
		c0.9,4,1.9,7.8,2.4,11.3c1.2,9.5-6.2,14.6-6.5,14.8C156.7,124.5,156.6,124.5,156.4,124.5z"/>
	<path class="st5" d="M162.6,89.1L162.6,89.1c-0.5-0.1-0.7-0.4-0.7-0.8c1.6-11-1.6-19.8-9.2-26c-5.8-4.7-12-6.1-12.1-6.1
		c-0.4-0.1-0.6-0.5-0.6-0.9c0.1-0.4,0.5-0.6,0.9-0.6c0.2,0.1,26.3,6.2,22.4,33.8C163.2,88.9,162.9,89.1,162.6,89.1z"/>
	<path class="st7" d="M136.8,117.1c-1.4,0-2.6-0.5-2.6-0.5c-0.4-0.2-0.6-0.6-0.4-0.9s0.6-0.6,0.9-0.4c0,0,2.2,0.9,4.1-0.1
		c0.3-0.2,0.8,0,0.9,0.3s0,0.8-0.3,0.9C138.5,117,137.6,117.1,136.8,117.1z"/>
	<path class="st7" d="M107.4,102.5c-0.1,0-0.2,0-0.2,0c-0.4-0.1-0.6-0.6-0.5-0.9c1.4-4.7-2-7.8-2.1-7.9c-0.3-0.2-0.3-0.7-0.1-1
		c0.2-0.3,0.7-0.3,1-0.1c0.2,0.2,4.2,3.8,2.4,9.4C108.1,102.3,107.7,102.5,107.4,102.5z"/>
	<path class="st7" d="M154.1,102.7L154.1,102.7c-0.5,0-0.7-0.4-0.7-0.8c0.3-4.6,3.2-6.9,3.3-6.9c0.3-0.2,0.8-0.2,1,0.1
		c0.2,0.3,0.2,0.8-0.1,1c0,0-2.4,2.1-2.8,5.9C154.8,102.4,154.5,102.7,154.1,102.7z"/>
	<path class="st6" d="M106.5,136.5c0,0,24.5,21.8,38.2,16.1c13.7-5.7,17.8-19,10.8-21.1C148.7,129.5,95.7,127.9,106.5,136.5z"/>
	<path class="st7" d="M138.2,114.5c-0.1,0-0.2,0-0.2-0.1c-2.2-0.8-3.3-1.8-3.4-3c-0.1-2,3-3.4,3.3-3.6c0.4-0.2,0.8,0,0.9,0.4
		s0,0.8-0.4,0.9c-1,0.5-2.5,1.5-2.4,2.2c0,0.6,0.9,1.2,2.4,1.7c0.4,0.2,0.6,0.6,0.4,0.9C138.8,114.4,138.5,114.5,138.2,114.5z"/>
	<path class="st8" d="M126.9,99.8c-0.2,0-0.5-0.1-0.6-0.2c-3.2-2.8-5.4-2.1-5.5-2.1c-0.5,0.2-1-0.1-1.2-0.6c-0.2-0.5,0.1-1,0.6-1.2
		c0.2-0.1,3.3-1.3,7.4,2.4c0.4,0.3,0.4,0.9,0.1,1.3C127.5,99.8,127.2,99.8,126.9,99.8z"/>
	<path class="st8" d="M143.7,100c-0.2,0-0.6-0.1-0.7-0.3c-0.3-0.4-0.3-1,0.1-1.3c4.1-3.6,7.3-2.4,7.4-2.4c0.5,0.2,0.7,0.7,0.6,1.3
		c-0.2,0.5-0.7,0.7-1.2,0.6c-0.1-0.1-2.3-0.7-5.5,2.1C144.1,99.9,143.9,100,143.7,100z"/>
	<path class="st5" d="M203.1,115l-18-5.2l-5.3,6.9l-12.7-1.3l15,7.3l5.2-8.6L203.1,115z"/>
	<path class="st5" d="M187.5,101.9l-11.4,0.2l-1.8,4.9l-7.7,1.5l10,1.6l1.5-5.9L187.5,101.9z"/>
	<path class="st9" d="M146.3,89c-4.1,0-7.5,3.2-7.7,7.3c-0.2,4.2,3.2,7.7,7.3,7.9h0.3c4.1,0,7.5-3.2,7.7-7.3
		c0.2-4.2-3.2-7.7-7.3-7.9H146.3z M146.3,105.3c-0.1,0-0.2,0-0.3,0c-4.7-0.2-8.4-4.2-8.3-8.9s4.2-8.4,8.9-8.3s8.4,4.2,8.3,8.9
		C154.7,101.7,151,105.3,146.3,105.3z"/>
	<path class="st10" d="M118.6,170c0,0,14.4-17,27.1-40.2c5-9.1,14.2-11.3,14.5-10s-5.4,6.6-5.4,6.6s7.7-5.6,8.8-3.8
		c1.3,1.8-5,7.4-5,7.4s5.5-3.2,7.9-1.9c2.4,1.3-6.5,3.1-6.4,7.7c2.6,72-31.3,66.4-31.3,66.4L118.6,170z"/>
	<path class="st7" d="M133.1,153.7c-0.1,0-0.2,0-0.2-0.1c-0.4-0.2-0.6-0.6-0.4-0.9c8.3-20.4,13.4-23.4,13.7-23.4
		c0.3-0.2,0.8-0.1,0.9,0.3c0.2,0.3,0.1,0.8-0.2,0.9c-0.1,0.1-5.1,3.2-13,22.7C133.6,153.5,133.4,153.7,133.1,153.7z"/>
	<path class="st4" d="M111.1,182.9l-49,3.9c0,0-1.7-23.5,5.4-35.6c7.1-12.1,26.8-17.6,30.1-18.3
		C100.9,132.2,111.1,182.9,111.1,182.9z"/>
	<path class="st11" d="M167.4,133.2c0,0,17.6,3.8,21,22.5c2.1,11.9,5.2,50.1,5.2,50.1l-7.9,3l-7.3,2.1l-15.2,3.5L167.4,133.2z"/>
	<path class="st11" d="M116.7,167c0,0,20.9,34.3,13.7,35.3c-7.3,0.9-44.3,3.8-54.3,0s-15.1-8.5-13.8-19c-1.1-16.3,4.3-36.2,6.9-31.7
		C82.6,174.5,116.7,167,116.7,167z"/>
	<path class="st12" d="M114.6,167.9c-13.8,0-26.4-13.7-26.9-14.3c-0.3-0.4-0.3-1,0.1-1.3s1-0.3,1.3,0.1c0.2,0.2,12.5,13.7,25.5,13.7
		c0.6,0,0.9,0.4,0.9,0.9C115.6,167.5,115.2,167.9,114.6,167.9z"/>
	<path class="st12" d="M170.2,201.9L170.2,201.9c-0.6,0-0.9-0.5-0.9-0.9c0-0.2,0.6-24.4,0-35.3c-0.6-10.2-3.2-12.5-3.2-12.5
		c-0.4-0.3-0.5-0.9-0.2-1.3s0.9-0.5,1.3-0.2c0.3,0.2,3.4,2.8,3.9,13.9c0.6,10.9,0,35.2,0,35.4C171.1,201.5,170.7,201.9,170.2,201.9z
		"/>
	<path class="st13" d="M131.3,36.9c-0.2,0-0.6,0-0.8,0.1c-0.7,0.2-1.2,0.5-1.5,1.1c-1.3,2.7,1.3,9.1,3.2,12.9
		c1.2-4.2,2.5-11.2,0.6-13.4C132.4,37,132,36.9,131.3,36.9z M132.5,54.1c-0.3,0-0.6-0.2-0.8-0.5c-0.6-1.2-6.4-11.8-4.3-16.3
		c0.5-1.1,1.4-1.8,2.7-2.1c2.1-0.4,3.4,0.4,4,1.1c3.4,3.9-0.4,15.8-0.9,17.1C133.2,53.8,132.9,54,132.5,54.1
		C132.5,54.1,132.5,54.1,132.5,54.1z"/>
	<path class="st13" d="M143,41.1c-0.1,0-0.2,0-0.2,0c-2.9,0.4-6.5,6.6-8.4,10.6c3.9-1.7,10.1-4.7,10.9-7.7c0.2-0.6,0.1-1.2-0.4-1.8
		C144.3,41.5,143.6,41.1,143,41.1z M132.8,54.1c-0.2,0-0.5-0.1-0.6-0.2c-0.2-0.2-0.3-0.6-0.2-0.9c0.6-1.3,5.5-12.9,10.6-13.5
		c0.9-0.2,2.4,0.1,3.8,1.8c0.8,1,1,2.1,0.7,3.3c-1.4,4.9-12.6,9.1-14,9.5C132.9,54.1,132.8,54.1,132.8,54.1z"/>
	<path class="st14" d="M116.4,51.1c4.2,2.7,13.9,4.8,21.4,0"/>
</g>
</svg>
