<?xml version="1.0" encoding="utf-8"?>
<!-- Generator: Adobe Illustrator 25.2.1, SVG Export Plug-In . SVG Version: 6.00 Build 0)  -->
<svg version="1.1" id="Layer_1" xmlns="http://www.w3.org/2000/svg" xmlns:xlink="http://www.w3.org/1999/xlink" x="0px" y="0px"
	 viewBox="0 0 270 250" style="enable-background:new 0 0 270 250;" xml:space="preserve">
<style type="text/css">
	.st0{fill:url(#SVGID_1_);}
	.st1{fill:url(#SVGID_2_);}
	.st2{fill:url(#SVGID_3_);}
	.st3{fill:url(#SVGID_4_);}
	.st4{fill:#FB4C47;}
	.st5{fill:#D9423D;}
	.st6{fill:#FF807C;}
	.st7{fill:#C63F3B;}
	.st8{fill:#F5C827;}
	.st9{fill:#FFAE00;}
	.st10{opacity:0.31;}
	.st11{opacity:0.31;fill:#FFFFFF;enable-background:new    ;}
	.st12{opacity:0.3;}
	.st13{opacity:0.3;fill:#FFC7D3;enable-background:new    ;}
</style>
<g>
	
		<linearGradient id="SVGID_1_" gradientUnits="userSpaceOnUse" x1="73.2924" y1="84.0973" x2="85.0621" y2="43.2303" gradientTransform="matrix(1 0 0 -1 0 251)">
		<stop  offset="0" style="stop-color:#FFD0D0"/>
		<stop  offset="1" style="stop-color:#FFF7F7"/>
	</linearGradient>
	<path class="st0" d="M107.5,212.7c-11.3,4-22.8,5.9-35,3.6C58.9,213.7,47,202,40.4,190.4c-2.5-4.3-4.5-9.1-4.2-14.1
		c0.6-11.5,11.4-12.8,20.7-10.9c5.2,1,10,3.4,14.7,5.8c7.8,3.9,17,5.8,24,11.3c2.4,1.8,4.1,4,6.9,5.3c4.3,2.1,9.1,3,13.5,4.9
		c3.7,1.6,7.9,4.3,7.9,8.3c0,4.2-4.3,6.8-8.2,8.5C112.9,210.7,110.2,211.8,107.5,212.7z"/>
	
		<linearGradient id="SVGID_2_" gradientUnits="userSpaceOnUse" x1="245.6353" y1="141.814" x2="113.9048" y2="172.2325" gradientTransform="matrix(1 0 0 -1 0 251)">
		<stop  offset="0" style="stop-color:#FFF7F7"/>
		<stop  offset="1" style="stop-color:#FFD0D0"/>
	</linearGradient>
	<path class="st1" d="M65.7,64.6c18.6-27.4,57-38.4,88.2-28.1c15,5,27.6,15.3,39.2,26c10.2,9.5,20.2,19.7,27.2,31.8
		c4.8,8.3,8.2,18.3,10.6,27.6c3.6,13.9,0.3,31.8-17.7,30.5c-4.2-0.3-7.9-1.8-11.8-3.2c-3.2-1.1-6.3-0.4-9.6-1
		c-8.3-1.3-16.4-4.4-24-8c-15.5-7.3-29.6-17.3-45.6-23.7c-13.1-5.3-27-8-41.1-8c-5.9,0-12.2,0.4-17.5-2.2
		c-13.1-6.6-7.2-24.2-2.3-34.2C62.6,69.6,64.1,67,65.7,64.6z"/>
	
		<linearGradient id="SVGID_3_" gradientUnits="userSpaceOnUse" x1="229.1042" y1="185.7339" x2="183.9089" y2="205.0376" gradientTransform="matrix(1 0 0 -1 0 251)">
		<stop  offset="0" style="stop-color:#FFD0D0"/>
		<stop  offset="1" style="stop-color:#FFFBFC"/>
	</linearGradient>
	<path class="st2" d="M211.4,68.7c3.1,2.8,15.1,10.3,15.3,1.5c0.1-2.2-0.9-4.4-2.3-6c-1.6-1.9-3.3-2.8-4.6-5
		c-1.5-2.6-3.2-5.1-5.1-7.3c-3.8-4.7-8.3-9.1-13.8-11c-3.8-1.4-10.3-1-12.1,3.9c-2.6,7.1,8.7,8.4,12.1,11c3.3,2.5,5.1,6.7,7.7,10.1
		C209.6,66.9,210.5,67.9,211.4,68.7z"/>
	
		<linearGradient id="SVGID_4_" gradientUnits="userSpaceOnUse" x1="220.6229" y1="60.1566" x2="38.9361" y2="165.3706" gradientTransform="matrix(1 0 0 -1 0 251)">
		<stop  offset="0" style="stop-color:#FFCFCF"/>
		<stop  offset="1" style="stop-color:#FFF8F8"/>
	</linearGradient>
	<path class="st3" d="M154.9,60.1c6.5,3.8,11.3,9.5,17.2,14.1c9.8,7.7,23.3,9.2,34.6,14.5c11.5,5.4,20.2,13.9,24.1,26
		c5.1,15.7,5.6,34.4,1.2,50.5c-4.7,17.8-15.9,29.6-32.2,37.5c-16.3,7.9-34.3,11.5-52.3,12.3c-1.7,0.1-3.5,0.1-5.2,0.1
		c-39.1,0.2-91.1-13.5-104.4-55.5c-0.1-0.4-0.2-0.8-0.4-1.2c-1.4-4.7-2.2-9.5-2.4-14.4c-0.8-17.3,2.2-36.3,8.2-52.5
		c4.1-10.9,12.8-20.1,22.1-26.7c13-9.2,28.8-11.6,44.6-12.7c11.7-0.8,24.8-1.1,35.8,3.3C149,56.9,152,58.3,154.9,60.1z"/>
	<path class="st4" d="M172.2,103c0,0-0.5,7.4-1.3,17.9c-0.6,8.2-1.3,18.3-2,28.1c-0.2,2.4-0.3,4.8-0.5,7.2
		c-0.4,5.7-0.8,11.1-1.1,15.8c-0.3,4-0.6,7.4-0.8,10.1c-0.3,3.4-0.4,5.6-0.5,6c-0.4,2.5-7.7,7.4-24.7,7.4c-17,0-26.8,0.3-30.1-3.8
		c-0.5-0.6-1.1-3-1.7-6.7c-1.4-7.9-3.1-21.8-4.7-35.7c-1-8.7-1.9-17.4-2.6-24.8c-1.1-11.4-1.9-19.7-1.9-19.7l20.6-0.5l26.2-0.7
		L172.2,103z"/>
	<path class="st5" d="M170.9,120.9c-0.6,8.2-1.3,18.3-2,28.1c-6.6,1.8-26,5.4-64.1,0.3c-1-8.7-1.9-17.4-2.6-24.8
		C112.2,125.7,144.7,128.5,170.9,120.9z"/>
	<path class="st5" d="M166.5,182.1c-0.3,3.4-0.4,5.6-0.5,6c-0.4,2.5-7.8,7.4-24.7,7.4c-17,0-26.8,0.3-30.1-3.8
		c-0.5-0.6-1.1-3-1.7-6.7C118.4,186.6,143.6,190,166.5,182.1z"/>
	<path class="st6" d="M174.4,103.9c-1.2,1.3-10.8,5.8-36.9,7.1c-2.4,0.1-4.8,0.2-7.1,0.2c-19.7,0.2-31.1-3.4-31.3-4.1
		c-0.3-0.8-0.8-6.1-0.1-6.7l0,0c0.6-0.5,8.1,3.3,29.7,2.7c2.7-0.1,5.5-0.2,8.6-0.5c25.4-1.9,33.6-5.8,35.6-5.9c0.2,0,0.4,0,0.5,0.1
		C174.4,97.7,175.6,102.6,174.4,103.9z"/>
	<path class="st7" d="M173,97.3c-0.9,3.4-27.5,9.7-40.5,9.5c-1,0-2.1-0.1-3.3-0.1c-13.1-0.6-31.8-3.3-30.2-6.3l0,0
		c0.2-0.3,5.4-8,26.4-10.1c1.3-0.1,2.6-0.2,4-0.3c0.7-0.1,1.5-0.1,2.2-0.1c0.1,0,0.3,0,0.4,0c0.8,0,1.5-0.1,2.3-0.1
		c0.9,0,1.8,0,2.7,0c25.2-0.2,35.5,3.8,36,7C173,96.9,173,97.1,173,97.3z"/>
	<path class="st8" d="M143.3,105.9c-0.4,0.7-2.6,1.3-5.2,1.6c-2.5,0.3-5.4,0.3-7.2-0.2c-0.8-0.2-1.4-0.5-1.7-0.9
		c-0.1-0.2-0.4-0.9-0.6-1.8c-0.5-1.6-1.1-4.2-1.8-7.1c-0.1-0.3-0.2-0.7-0.3-1.1c-0.4-1.8-0.9-3.6-1.3-5.5c-0.3-1.2-0.6-2.4-0.9-3.5
		c-0.2-0.7-0.3-1.3-0.5-1.9c-0.6-2.3-1.1-4.5-1.6-6.3c-0.6-2.4-1.2-4.1-1.5-4.8c-0.1-0.1-0.1-0.2-0.2-0.3c-0.1-0.1-0.2-0.1-0.4-0.1
		c-1-0.1-3.3,0-6,0.2c-5.4,0.4-12.5,1-13.1-0.3c-0.4-0.8-0.7-2.5-0.8-4.5c-0.1-3,0.2-6.5,1.4-7.3c0.9-0.6,6.2-1.2,12-1.5
		c3-0.1,6.1-0.2,8.9-0.1c3.5,0.1,6.2,0.5,7.3,1.2c0.4,0.3,1,1.3,1.7,2.7c0.9,2,2,5,3.2,8.5c0.7,2.1,1.4,4.3,2.1,6.6
		c0.7,2.3,1.4,4.6,2,6.9c0.1,0.3,0.2,0.7,0.3,1c0.1,0.4,0.3,0.9,0.4,1.3c0.4,1.5,0.8,3,1.2,4.4c0.2,0.9,0.4,1.7,0.6,2.5
		c0.5,2,1,3.9,1.3,5.4C143.2,103.8,143.5,105.6,143.3,105.9z"/>
	<path class="st9" d="M142.5,101l-5.9,1.4l-8.3,1.9c-0.5-1.6-1.1-4-1.8-6.8l8-2.3l6.1-1.8C141.4,96.3,142.1,99,142.5,101z"/>
	<path class="st9" d="M139.2,87.3c-1.7,0.4-3.9,1-6.1,1.6c-2.9,0.7-5.8,1.5-7.8,2c-0.3-1.2-0.6-2.5-0.9-3.7c-0.2-0.7-0.3-1.4-0.5-2
		l7.2-3.4l5.7-2.7c0.7,2.4,1.4,4.8,2,7.2C139,86.6,139.1,86.9,139.2,87.3z"/>
	<path class="st9" d="M134.9,73l-5.7,2.7l-7.1,3.3c-0.6-2.3-1.2-4-1.6-4.7l6.2-5.4l4.8-4.2C132.6,66.7,133.7,69.6,134.9,73z"/>
	<path class="st9" d="M122.3,60.5c-0.3,1.9-0.7,4.2-1.1,6.5c-0.4,2.3-0.8,4.6-1.2,6.7c-0.9-0.1-3.1,0-5.7,0.2l-0.2-6.5l-0.2-6.9
		C116.7,60.5,119.7,60.4,122.3,60.5z"/>
	<g class="st10">
		<g class="st10">
			<path class="st11" d="M143,95.3c6.3,0.3,12.6,1,18.9,2.1c2,0.4,2.8-2.7,0.8-3c-6.5-1.2-13.1-2-19.7-2.2
				C141,92.1,141,95.3,143,95.3z"/>
		</g>
	</g>
	<g class="st12">
		<g class="st12">
			<path class="st13" d="M162.7,119.1c-0.4,11.5-1.1,23-2.2,34.5c-0.2,2,3,2,3.2,0c1.1-11.5,1.8-23,2.2-34.5
				C165.9,117,162.8,117,162.7,119.1z"/>
		</g>
		<g class="st12">
			<path class="st13" d="M162,162.3c2,0,2-3.2,0-3.2C159.9,159.1,159.9,162.3,162,162.3z"/>
		</g>
	</g>
</g>
</svg>
