<?xml version="1.0" encoding="utf-8"?>
<!-- Generator: Adobe Illustrator 25.2.1, SVG Export Plug-In . SVG Version: 6.00 Build 0)  -->
<svg version="1.1" id="Layer_1" xmlns="http://www.w3.org/2000/svg" xmlns:xlink="http://www.w3.org/1999/xlink" x="0px" y="0px"
	 viewBox="0 0 900 570" style="enable-background:new 0 0 900 570;" xml:space="preserve">
<style type="text/css">
	.st0{fill:#F44A45;}
	.st1{fill:#167C51;}
	.st2{fill:#035755;}
	.st3{fill:#0C6C44;}
	.st4{fill:#41294A;}
	.st5{fill:#FA5652;}
	.st6{fill:#DA5C5D;}
	.st7{fill:#FF5476;}
</style>
<g>
	<path class="st0" d="M714.7,471.6c0,0-2.1,0,0-10.4c2.1-10.4,2.1-26.2,6.2-31.1c4.1-4.8,17.9-10.4,28.3-15.9
		c10.4-5.5,16.6-12.4,20.7-12.4s2.8,6.2,8.3,0c5.5-6.2,6.2-0.7,11.7,0l5.5,0.7c0,0-1.4,5.5,0,9c1.4,3.5,3.5,4.1,8.3,2.8
		c4.8-1.4,11-14.1,13.1-15.3c2.1-1.2,4.8,12.6,6.2,17.4c1.4,4.8,11,17.3,14.5,24.2c3.5,6.9-22.1,38.7-27.6,40
		c-5.5,1.4-22.1-1.4-24.9,0c-2.8,1.4-8.9-12.4-9.3-13.8c-0.4-1.4-3.8,0.7-3.8,0.7s-8.3-6.2-13.8-5.5c-5.5,0.7-15.9,6.2-19.3,6.9
		c-3.5,0.7-12.4,0-12.4,0l-4.8,4.1L714.7,471.6z"/>
	<path class="st0" d="M787,500.1c0,0,1.4-5.5,1.8-8.3c0.5-2.8,5.5-3.7,5.5-3.7s1.4,5.5,0,8.3C792.9,499.2,787,500.1,787,500.1z"/>
	<path class="st1" d="M840.3,508.9c0,0,0.9-7.4,5.1-8.7c4.1-1.4,18.9-11.5,22.5-12c3.7-0.5,0,8.3,0,8.3s-14.3,10.1-17.9,12.4
		C846.3,511.2,839.8,511.3,840.3,508.9z"/>
	<path class="st1" d="M876.7,488.1c0,0,3.7-6.9,4.1-10.6c0.5-3.7,3.7-6.4,3.7-6.4s1.4,7.8,1.8,8.5c0.5,0.7,1.8,2.1,1.8,4.8
		c0,2.8-10.6,7.8-11.5,7.4C875.8,491.4,875.3,490.9,876.7,488.1z"/>
	<path class="st1" d="M782.4,363.4c0,0,3,7.8,4.1,8.3c1.1,0.5,11.7,2.8,14.7,5.1c3,2.3,1.4,5.5,0,6.9c-1.4,1.4,1.2,3.7,3.2,3.5
		c2.1-0.2,4.4,0.9,5.1,2.3c0.7,1.4,4.6,3,5.8,2.1c1.2-0.9,2.5-4.6,4.1-5.1c1.6-0.5,6.9-1.4,7.4,0c0.5,1.4,3.7,4.2,5.1,5.3
		c1.4,1.1,4.8,1,7.4,0c2.5-1-1.1-1.9-2.5-2.8c-1.4-0.9-3.5-2.3-4.6-6c-1.2-3.7,0.5-4.8-2.5-6.4c-3-1.6-15.9-10.4-19.3-11.3
		c-3.5-0.9-15.2,1.8-18.6,0.7c-3.5-1.1-3.5-3.2-4.4-3.7C786.3,361.8,780.7,359.5,782.4,363.4z"/>
	<path class="st2" d="M836.4,375.6c0,0,3.7,0,5.5,1.2c1.8,1.3,3.7,1.7,2.1,2.2c-1.6,0.5-6.2,2.1-7.6,0.7
		C835,378.4,834.3,375.5,836.4,375.6z"/>
	<path class="st2" d="M757.4,385.8c0,0,2.9-2.7,5.2-2.7s5.2,1.3,5.2,1.3s-4.2,2.3-6.1,2.9C759.7,387.9,756,386.9,757.4,385.8z"/>
	<path class="st2" d="M746.2,385.3c0,0,2.3-2.6,4.4-3c2.1-0.4,5.4,0.8,5.4,0.8s-2.3,1.1-4.9,2.2S745.3,386.2,746.2,385.3z"/>
	<path class="st2" d="M745.3,387.5c0,0,2.3,0.4,3.3,0c1-0.4,0.6,2.3-0.8,2.3C746.4,389.8,744.3,389.7,745.3,387.5z"/>
	<path class="st2" d="M737,384.4c0,0,2.1-1.1,4.1-1.5c1.9-0.4,4.8-0.7,4.3,0c-0.6,0.7-1.4,2.2-3,2.5
		C740.7,385.5,735.3,385.1,737,384.4z"/>
	<path class="st3" d="M710,376.9c0,0,2.4-1.8,6.1-1.3c3.7,0.6,8.5,1.5,11.6,2.3c3.1,0.9,7.7,4.4,9.6,4.3c2-0.1,3.3,1,0.9,1.3
		c-2.4,0.3-9.8,0.5-13.4-0.5c-3.6-1-7.5-3.2-10.4-3.4C711.5,379.4,708.5,377.7,710,376.9z"/>
	<path class="st3" d="M748.3,375.5c0,0-2.6-7.2-2.9-10.3c-0.3-3.1,3.8-10.4,4.3-11.6c0.5-1.2,9.5-1.1,11.8-1.9
		c2.3-0.9-0.8,3.9-3,3.9c-2.2,0-6,0.5-7.5,1.2c-1.5,0.7-0.7,2.7-0.4,2.7c0.3,0,4.8,0.1,5.4,0.7c0.6,0.6-2.2,2.3-2.2,2.8
		c0.1,0.5,2.6,5.1,2.7,6.5c0.1,1.4-0.7,5.5-1.2,5.1c-0.5-0.4-2.8-1.8-3.1-3c-0.3-1.2-1.2-3.1-2.3-3.3c-1.2-0.2-0.6,3.3-0.6,4.5
		C749.5,374.1,748.7,376.6,748.3,375.5z"/>
	<path class="st2" d="M761.5,361.8c0,0,2.2,0.3,2.9,1.3c0.7,1.1-0.9,1.3-2,1.2C761.3,364.3,759.8,362,761.5,361.8z"/>
	<path class="st3" d="M769.2,358.3c0,0-0.1-2.9,0-4.4c0.1-1.5,0.3-3.4,1.1-3.4c0.8,0,2.6,3.2,2.3,3.9c-0.3,0.7-1,3.3-1.7,3.9
		C770.1,358.9,769.2,359.7,769.2,358.3z"/>
	<path class="st2" d="M774,362.6c0,0,2,0,2.9,0.5c0.9,0.5,1.3,1,0.9,1.3c-0.5,0.3-2.6,0.1-3.2,0C774,364.3,772.7,362.5,774,362.6z"
		/>
	<path class="st1" d="M718.7,351.6c0.3-0.1,3.9-1.5,6.3-1.5c2.4,0,4.7-6,7.5-6.4c2.8-0.4,4.9-5.8,7-6.6c2.1-0.9,7.1,1.6,6.6,2.4
		c-0.5,0.8-2.4,2.9-3.2,4.3c-0.8,1.4-0.2,5.5,0.4,6.8c0.6,1.3,2.5,3.2,2.2,3.6c-0.3,0.4-5.2,10-5.9,11.5c-0.8,1.5-2.4,2.8-4.4,2.9
		c-2,0.1-8.7-0.6-10.5-1.4c-1.8-0.9-3.2-4.6-3.7-5.9c-0.5-1.2-1.6-2.9-1.7-4.5C719.1,355.1,718,351.8,718.7,351.6z"/>
	<path class="st3" d="M681.8,338.4c0,0,6.3,2.2,7.7,3.3c1.3,1.1,5.1,6,7.4,8.5c2.3,2.5,6.1,5.2,6.4,6.3c0.3,1.2,6,9.8,6.3,10.8
		s1.2,5.7,0,5.8c-1.2,0.1-7.3-1.5-8.4-3c-1.1-1.4-6.3-6.2-6.5-8.3c-0.2-2.1-2.4-8.7-3.5-10.2c-1.2-1.5-3.5-1.4-4.2-2.5
		c-0.8-1.1-2.8-5.9-4.1-6.2C681.5,342.5,681,338.1,681.8,338.4z"/>
	<path class="st2" d="M708.1,360.9c0,0,0,2.8,1.1,3.5c1.1,0.7,1.6,1.5,2,1.2c0.4-0.3,0.7-1.4,0.4-2.5
		C711.3,362,708,359.7,708.1,360.9z"/>
	<path class="st3" d="M639.9,325.4v6.6c0,1.4,4.2,4.4,4.4,4.8c0.2,0.4,1.4-6,1.4-7.1S639.9,323.4,639.9,325.4z"/>
	<path class="st2" d="M488.4,238.3c0,0,1.9,0.5,2.6,0.7c0.6,0.2,3.2,1.3,3,1.6c-0.3,0.3-3.2,0.4-3.5,0.4c-0.3,0-2.1,0.6-2.4,0
		c-0.4-0.6-1.7-3-1.4-2.7C486.8,238.5,487.5,238,488.4,238.3z"/>
	<path class="st2" d="M460.2,229.1c0,0,2.7,1.4,3.5,1.7c0.9,0.2,1.8,1.8,2.2,2.4c0.4,0.6-1.8-0.1-2.2-0.4c-0.4-0.3-2.4-0.4-3-0.9
		C460,231.4,459.5,228.8,460.2,229.1z"/>
	<path class="st2" d="M449.2,220.4c0,0,1.2,1.2,1.6,1.6c0.4,0.4-0.5,2.9,0,3.7c0.5,0.8-0.7,2.7-0.7,2.2c0-0.4-1.5-2.1-2.1-3.1
		c-0.6-1-0.7-1.6-0.6-2.6C447.6,221.2,448.5,219.8,449.2,220.4z"/>
	<path class="st2" d="M447.8,214.2c0,0-0.9,1.4,0,2c0.9,0.6,2.5,1.4,2.5,1.4s0.1-0.8,0-1.7C450.1,215,448.2,212.9,447.8,214.2z"/>
	<path class="st2" d="M435.2,222.9c0,0,0.6,1,1.1,1.2c0.4,0.1,1.4-0.5,1.8-0.6c0.4-0.1-1.4-0.9-1.4-1.2
		C436.6,222.1,435.2,222.9,435.2,222.9z"/>
	<path class="st2" d="M429.6,225c0,0,0.4-0.5,1.4-0.8c1-0.4,2.2-0.3,2.6-0.4c0.4-0.1,0.1,0.6-0.6,1.2c-0.6,0.6-1.5,1.4-2.8,1.5
		c-1.3,0.1-1.5,0.7-1.3,0.1C429.1,226,428.8,225.6,429.6,225z"/>
	<path class="st1" d="M411.9,185c0,0,0.5-1.7,1.3-3.2c0.9-1.4,0.5-5.6,0.8-6.2c0.3-0.7,2.9-4.4,3-4.7c0.1-0.3-6.3-6.2-6.6-7.1
		c-0.3-0.9,0.2-3.5,0.6-4.4c0.4-1,2.8-5.7,3.3-5.9c0.5-0.2,1.9,0,1.9,0s0.6,1.8,1.3,2.3c0.8,0.5,2.6,1.1,3.1,1.6
		c0.5,0.5,1,6.8,1.1,7.4c0.2,0.6,3.6,7.6,3.9,7.8c0.4,0.2,4.3,3.3,4.4,3.6c0.1,0.4-0.9,6.3-1.3,6.6c-0.5,0.3-4.9,1.5-5.4,1.6
		c-0.5,0.1-1.4,1.1-2.5,1.2C419.8,186,411.9,185,411.9,185z"/>
	<path class="st1" d="M398.9,175.9c0,0,1.2-4.5,2-5.5c0.8-1,3.1-2.7,3.9-3.1c0.9-0.4,5.6-1.3,5.5-0.9c-0.1,0.5-0.5,3.6-0.5,4.1
		c0,0.5,1.2,2.8,1.1,3.5c-0.1,0.7-2.4,4.6-3.3,5.2c-0.9,0.6-7,2-7.2,1.4c-0.2-0.6-0.5-2.5-0.5-2.5s-0.7-0.8-1.1-1.1
		C398.5,176.9,398.9,175.9,398.9,175.9z"/>
	<path class="st2" d="M410.3,153c0,0-1.6,1.7-1.9,2.2c-0.3,0.5-0.9,2.5-0.6,2.4c0.3-0.1,1.2-0.7,1.9-1.1c0.7-0.4,1-1.9,1.2-2.3
		C411.1,153.9,410.3,153,410.3,153z"/>
	<path class="st2" d="M422.8,144.4c0,0-1.7,1.8-2,2.5c-0.3,0.7-1.1,2-0.6,2.1c0.6,0.1,2.5-1.2,2.6-1.2c0.1-0.1,0.3-0.2,0.8-1.1
		C424,145.8,422.8,144.4,422.8,144.4z"/>
	<path class="st4" d="M541.7,109.9c0,0,0.8-1.4,1.2-1.7c0.4-0.3,2.1-1,2.4-1c0.3,0,0.8,2.4,0,2.7c-0.8,0.3-3,1.5-3,1.5
		S541.4,110.4,541.7,109.9z"/>
	<path class="st3" d="M547.3,95.8c0,0,1.1-4.3,2.1-5.6c1.1-1.2,7.8-10.4,8.4-10.6c0.7-0.2,3.2-1.4,4.4-1.9c1.2-0.5,0,4.8,0,4.8
		s0.4,0.1,1.2-0.1c0.9-0.2,2.6-0.5,2.6,0.1v3c0,0-7.7,5.6-7.8,6.1c-0.1,0.6-0.4,5.7-0.4,5.7c0.4,1.3,1.8,4.4,1.8,4.9
		c0,0.5-0.1,2.4-0.1,2.4s-3.9-1.1-4.8-1.4c-0.9-0.4-3.5-4.3-3.9-4.5c-0.5-0.2-2.1-1.2-2.6-1.5C547.9,96.8,547.3,95.8,547.3,95.8z"/>
	<path class="st3" d="M566.1,77c0,0-1.1,1.1-1.4,1.8c-0.4,0.8,1.4,1.6,2.3,2.2c0.9,0.6,2.5,0.5,3.2,0c0.7-0.5,3.5-3.3,3.5-3.3
		c-0.1-0.6-2.6-1.7-3.5-1.7C569.4,76,566.1,77,566.1,77z"/>
	<path class="st3" d="M578.9,73.5c0,0-4.8,0.9-5.2,1.4c-0.4,0.6,3.4,2.1,4.3,2.1c0.9,0,2.1,0.3,3.2,0c1.1-0.3,2.9-2.6,2.9-2.6
		S581.4,72.9,578.9,73.5z"/>
	<path class="st1" d="M555.7,392.5c0,0-2,4.9-2.6,5.3c-0.6,0.4-5.8,5.3-7.1,6.2c-1.3,0.9-2.7,1.9-3.2,2.9c-0.4,1-2.3,3.9-2,4.5
		c0.3,0.6,1.6,2.2,1.6,2.9c0,0.7-1.9,3.7-2.3,5.3c-0.4,1.6-1.3,8.1-0.9,8.9c0.4,0.9,1.9,5.6,3.5,6.2c1.6,0.6,8.9-10.4,9.8-12.4
		c0.9-2,0.1-2.9,1.3-3.7c1.2-0.9,2.4-11.8,2.9-13.1c0.4-1.3,1.9-2,2-2.6c0.1-0.6-1.1-9.9-1.4-10.4
		C557,392.1,557.2,391.3,555.7,392.5z"/>
	<path class="st1" d="M540.3,319.1c0,0,0.4,0.4,2.2,1.4c1.7,1,3.9-0.9,5.8-0.7c1.9,0.1,9.6-2.2,11.1-2.2c1.4,0,2,0.5,1.4,3.2
		s-3.5,14.5-4.6,16.7c-1.2,2.2-14.2,14.5-17,17.3s-8.9,10.4-9.1,11.1c-0.1,0.7,0.4,11.9,1,13.4c0.6,1.4,1.7,4.8,1.9,6.6
		c0.1,1.9-0.6,15-1.2,16.7c-0.6,1.7-14,12.8-14.5,14.4c-0.6,1.6-1.4,4.2-0.9,4.7c0.6,0.6,2.3,1.3,1.7,3.5c-0.6,2.2-1.5,4-1.9,4.9
		c-0.4,0.9-3.3,0.9-4.4,2.3c-1.2,1.4-0.9,4.9-1.7,7.3c-0.9,2.4-3.3,5-4.6,7.2c-1.3,2.2-5.2,5.3-6.2,7.5c-1,2.2-2.6,3.9-3.2,4.8
		c-0.6,0.9-11.2,1.7-13.4,2.6c-2.2,0.9-3.2,2.7-4.7,2.9c-1.6,0.1-5.3,0-5.3,0s-2.7-3.9-3-5.3c-0.3-1.4-1.9-3.7-1.4-6
		c0.4-2.3-5.8-17.6-6.6-19.4c-0.9-1.9-1.2-13.5-1.3-16.1c-0.1-2.6-5.4-6.8-4.8-8.5c0.5-1.7,0.7-8.1,1-9.5c0.3-1.4,2.7-6.8,3.5-8.5
		c0.7-1.7,0.9-4.3,0.9-5.7c0-1.4-1.3-3-1.3-4.6c0-1.6,0.1-4.2,0.1-4.6c0-0.4-8.8-13.8-9.6-15c-0.9-1.2-1-2.3-0.9-4.2
		c0.1-1.9,0.5-4.3,0-5c-0.5-0.7-0.5-7.3,0-8.6c0.5-1.3-2.5-4.7-2.5-4.7l-6.9-0.9c0,0-3.5-4.5-4.2-4.6c-0.7-0.1-3.3-0.6-4-0.1
		c-0.7,0.4-3.6,1.3-4.5,1.3h-5.3c0,0-1.6,2.4-3,2.7c-1.4,0.3-3.2,0.6-3.2,0.6l-2.3-1.4c0,0-3.9-0.7-5.3-0.4
		c-1.4,0.3-3.3,1.4-3.9,1.4c-0.6,0-2.6,0-3-0.1c-0.4-0.1-13.8-12.7-15-14.4c-1.2-1.7-5.5-7.8-5.6-8.5c-0.1-0.7-0.7-7.1-0.7-7.1
		l-2-1.7c0,0,0.4-3.6,0.7-4.7c0.3-1.2,3-5.6,3.5-6.3c0.4-0.7-0.7-2.2-0.6-2.9c0.1-0.7,1.6-2.9,1.6-2.9s-1.4-4.7-1.3-6.2
		c0.1-1.4-0.3-1.7,0.6-3.7c0.9-2,0.3-8.6,0.7-9.5c0.4-0.9,10.4-9.2,11.8-9.5c1.4-0.3,2.6-2.4,2.6-2.4s-0.1-3.6,0.1-5.3
		c0.3-1.7,6.8-9.9,7.9-10.6c1.2-0.8,3.3-3.8,3.9-3.8h13.7c1.3,0,3.9-2.7,4.9-2.7c1,0,23.9,0.3,24.5,0c0.6-0.3,1,8.9,1.9,9.1
		c0.9,0.1,4.5,2.2,4.7,2.7c0.3,0.6,1,1.3,1.1,1.4c0.2,0.1,5.8,1.2,6.1,1.6c0.4,0.4,4,5.5,4,5.5s5.6,0,6-0.3c0.4-0.3,2.6-4.9,3-5.5
		c0.4-0.6,1.7-0.6,3.2-0.6c1.4,0,5.2,1.6,5.8,1.6c0.6,0,0.9,4,1.1,4.5c0.3,0.4,2-2,2.4-2c0.4,0,8.8,2,9.8,2.4
		c1,0.4,10.3,9.7,11.9,10.6c1.7,0.9,6.2,13.5,6.8,14.6c0.6,1,0.7,4,0.7,4s2.4,1.7,2.9,3.2c0.4,1.4,1.5,4.4,2.1,5.5
		c0.6,1.1,1.5,4.4,2.9,5.6c1.4,1.2,2,5.6,2.6,6.5c0.6,0.9,0.7,4.2,1.3,4.3c0.6,0.1,2.9,1.2,3.7,1.9c0.9,0.7,2.3,2.6,3.2,3.3
		C540.3,315.3,540.3,319.1,540.3,319.1z"/>
	<path class="st3" d="M256.7,533.5c0,0-3.5-1.7-5.6-2.7c-2.1-1-4.4-2.7-4.4-2.7s-1.2-2.1-1.9-2.3c-0.8-0.2-4.2,2.1-4.2,2.1l2.5,5.6
		c0,0,4.6,1.5,5.6,1.9C249.6,535.8,256.7,533.5,256.7,533.5z"/>
	<path class="st1" d="M245.9,520.7l-1.5-4.6c0,0,5.2-5.2,5.8-7.1c0.6-1.9,0.8-7.7,0.8-7.7l-2.3-2.9c0,0,5.9-8.8,6.3-10.4
		c0.4-1.5,0-5.2,0-5.2s0.4-1,1.7-1.3c1.3-0.4,3.3-4.8,4.2-5.9c1-1.2,10.4-4.8,10.7-5.6c0.4-0.8,0.8-3.5,0.8-3.5s-2.7-6.1-1.7-6.7
		c1-0.6,5.4,0,5.4,0s9.4-9.6,13.4-14.4c4-4.8,3.6-12.9,4.8-15.7c1.2-2.9,16.7-10.2,18-12.5c1.3-2.3,5-17.1,5-17.1s1.5-11.3,2.1-13
		c0.6-1.7,6.7-4.2,7.1-6.1c0.4-1.9,1-14.4,1-14.4s-10.2-2.7-10.6-4c-0.4-1.3-0.4-3.1-1.3-4c-1-1-11.7-2.3-12.5-2.5
		c-0.8-0.2-5.6-6.3-5.6-6.3s-8.6,0.8-10,0c-1.4-0.8-1.6-2.5-1.6-2.5s0.1-5.6,0-6.9c-0.1-1.3-7.8-7.9-9.9-9.2
		c-2.1-1.3-11.1-4.8-12.7-6.1c-1.5-1.3-3.1-6.7-3.6-7.5c-0.6-0.8-17.5-2.7-18-3.1c-0.6-0.4-5.9-3.1-5.9-3.1s-2.7,3.1-3.6,2.5
		c-1-0.6-1.7-4.4-2.5-4.4s-5.6,2.9-5.6,2.9s-4,1-5,1.9c-1,1-2.9,5.4-3.8,5.8c-1,0.4-3.5,1-3.5,1s-1.1,3.3-0.8,4
		c0.4,0.8,2.3,4.4,2.3,4.4s-0.4,7.7-1,8.3c-0.6,0.6-8.4,11.1-8.6,12.1c-0.2,1,0,4.2,0,4.2s3.1,2.7,2.3,4.6c-0.8,1.9-3.6,4.8-3.6,5.9
		c0,1.2,4,6.9,5,7.5c1,0.6,1.1,8.3,1.7,9c0.6,0.8,8.8,12.3,9.8,13.1c1,0.8,13.1,10.9,13.4,13c0.4,2.1,2.3,11.3,1.3,17.3
		c-1,5.9-2.1,13.6-2.9,15.9c-0.8,2.3-0.2,22.7-0.6,24.4c-0.4,1.7-0.8,4.4-1.3,5c-0.6,0.6,0.2,14.8,0.6,17.1c0.4,2.3,1.1,9,0,11.1
		c-1.2,2.1-1.9,5.9-1.7,7.1c0.2,1.2,2.1,6.5,2.3,7.3c0.2,0.8,0.4,4,0.4,4l3.5,2.7l0.8,4.4c0,0,3.8,1,4.8,1.2c1,0.2,1.2-1.9,1.2-1.9
		s1.7,1,3.8,0.4C246.5,522.4,245.9,520.7,245.9,520.7z"/>
	<path class="st3" d="M198.3,274.8c0,0,9.4-0.4,10.4,0c1,0.4,10.2,6.3,11.1,6.8c0.9,0.4,5.6,2.6,5.6,2.6s-1.3,1-2.3,1.3
		c-1,0.3-8.1,0-8.1,0s-1.3-3.5-2-3.9c-0.7-0.4-5-2.7-6-3c-1-0.3-7.2,1.6-7.2,1.6s-2.6-1.7-3-2.3
		C196.3,277.2,198.3,274.8,198.3,274.8z"/>
	<path class="st3" d="M213.7,289c0,0,3.2,0.6,4.3,0.9c1.2,0.3,2.4,2,2.4,2s-2.9-0.3-3.4,0c-0.5,0.3-3.4,0-3.4,0
		S212.8,288.8,213.7,289z"/>
	<path class="st3" d="M225.4,289c0,0,1.4,0.7,2.4,0c1-0.7,2.4-2.2,3.3-2.2c0.9,0,4.3-0.3,5,0c0.7,0.3,2.9,1.1,2.3,2.2
		c-0.6,1-3,3.9-4,3.9c-1,0-3.6,0.6-4,0c-0.4-0.6-1.6-0.9-1.6-0.9s-2-0.6-2.6-0.7C225.7,291.2,223.7,288.7,225.4,289z"/>
	<path class="st0" d="M273.8,188.4c0,0,10.2-9.1,11.1-8.3c0.9,0.7,0,5,0,5s1.3,1,2.8,1.2c1.4,0.1,2.1,4.5,2.4,5c0.3,0.6,0,5.6-1,5.6
		c-1,0-3.2-1.6-3.2-1.6l-6.6-1l-2.2-0.9c0,0-4.2-0.7-4-1.3C273.2,191.6,273.8,188.4,273.8,188.4z"/>
	<path class="st0" d="M215.2,126.5c0,0,2.7-5.5,3.9-6.2c1.1-0.7,5.2-1.2,5.2-1.2s2.3,4.7,2.9,4.9c0.6,0.1,4,2.4,4,2.4l-1,0.9h-5.9
		c0,0-3.7,3.3-4.3,3.5C219.4,131,214.6,127.6,215.2,126.5z"/>
	<path class="st0" d="M221.9,131.8c0,0-0.7,2.2,0,2.3c0.7,0.1,3.3-1.2,3.6-2.3l0.3-1.2C225.8,130.7,222.2,130.8,221.9,131.8z"/>
	<path class="st0" d="M235.8,128.1l-1.3,2.7c0,0-0.4,0.3,1.3-0.1c1.7-0.4,3-2.6,3-2.6S237.4,126.9,235.8,128.1z"/>
	<path class="st0" d="M237.9,125c0,0,7.5,1.5,8.5,1.5c1,0,3,3.9,4.2,4.2c1.1,0.3,5.3,0.4,6.8,1.7c1.4,1.3,4.6,5.8,5.3,5.6
		c0.7-0.1,0-2.3,0-2.3l-2.2-6.5c0,0,5.3,5.2,5.9,4.9c0.6-0.3,1.4-9.1,1.4-9.1s-4-5.4-4.2-5.8c-0.1-0.4,0.4-1.3,1.4-1.4
		c1-0.1,4.9,3.9,6.3,3.7c1.4-0.1,7.5-6.8,7.5-6.8s-14.8-9.1-13.7-9.5c1.2-0.4,1.6-0.6,1.6-1.2c0-0.6,1-3.5,1-3.5s-6.8-7.9-7.8-7.9
		h-4.6c0,0-0.1-0.1-2.2-1.6c-2-1.4-14.5-2.2-14.5-2.2s-2.6-4-3-4.3c-0.4-0.3-5.6,0-5.6,0s-3.2,7.1-3.6,6.5c-0.4-0.6,0-3.3,0-3.3
		l1.4-4.6l-4.8,0.9c0,0-5.9,6.3-5.8,7.1c0.1,0.7,0.6,7.6,0.6,7.6s4.3,2.2,5.8,2.4c1.5,0.3,9.2,0.3,10.7,0.3c1.5,0,5.7-0.6,5.7-0.6
		l2.2-1.3l1.1,3c0,0,1.9,3.9,2.4,4c0.6,0.1,5.5,1.7,5.5,1.7s-0.4,5.5-0.4,5.9c0,0.4-4.3,4.3-5,4.9c-0.7,0.6-5.3,3.5-5.9,3.5
		C239.4,122.6,236.9,124.8,237.9,125z"/>
	<path class="st0" d="M246.3,108.5c0,0-3.5,2-3.5,2.7c0,0.7-0.7,4.2,0,4c0.7-0.1,3-2.9,3.5-3.4C246.7,111.4,246.3,108.5,246.3,108.5
		z"/>
	<path class="st0" d="M240.5,102.9c0,0-1.9,0-2.6,1c-0.7,1-1.3,2-1.3,2s2,0.3,2.9,0c0.9-0.3,1.7-1.4,1.7-1.4
		S241.2,102.8,240.5,102.9z"/>
	<path class="st0" d="M134.1,87.9c0,0,1.3,1.2,1.4,1.5c0.1,0.3,0,2.9,0,2.9s8.9,0.6,9.3,0c0.4-0.6,1.2-3.5,1.9-3.8
		c0.7-0.3,3.6-3,3.6-3s0.6,3.5,0,3.5c-0.6,0-0.6,1.5-0.6,1.5l0.8,4.7c0,0,10.4,0.5,10.2,0.8c-0.2,0.3-2.5,1.1-2.5,1.1s-7,1-7.2,1.3
		c-0.2,0.4-0.4,2.2-0.4,2.2s6.8,3.3,7.9,3.8c1.1,0.6,4.6,1.1,5.2,1c0.6-0.1,3.5-2,3.5-2s7.7,0.4,8.5,0.4c0.9,0,3.7,0.7,4.4,0.7
		c0.7,0,3.4,0,3.4,0s1.5-3.9,2-4.1c0.5-0.2,1.7-1.2,1.7-1.2s0.1-1.2,0-1.8c-0.1-0.6-6.6-7.8-7.1-8.6c-0.5-0.9-1.2-4-1.2-4h-2.8
		c0,0-1.2,2-1.6,2.1c-0.5,0.1-1.4-1.3-1.4-1.3l-3.5,1.2c0,0-7.9-0.4-8.3-0.8c-0.5-0.4-2.8-2.1-2.8-2.1l-1.7,0.7l-1.2-1.3
		c0,0,0.8-0.6,1-1.2c0.2-0.6-0.1-1.9-0.1-1.9s-6.1,0.2-6.4,0c-0.3-0.2-1.7-1.1-2.1-1.2c-0.4-0.1-8.6,0-8.6,0s-2.5,4.1-2.6,4.8
		S134.1,87.9,134.1,87.9z"/>
	<path class="st0" d="M147.5,69.1c0,0,0.2-1,0.7-1.3c0.5-0.4,8-4.3,8.4-4.5c0.5-0.2,7.4,0,7.4,0s-1.4,2.6-2,2.9
		c-0.6,0.3-4.7,2.2-4.7,2.2s-1.4,2.7-1.5,2.8c-0.2,0.1-1.4-1.4-1.4-1.4S147.3,69.6,147.5,69.1z"/>
	<path class="st0" d="M159.6,72.7c0,0,4.5-4.2,5-4.4c0.5-0.2,4.9,2.8,5.4,2.9c0.5,0.1,0.4,1.8,0.4,2.4c0,0.6-2.6,2.9-2.6,3.3
		c0,0.4-1.3,0.9-1.3,0.9s-0.8-1.3-1.4-1.5c-0.7-0.2-5.1-0.6-5.4-0.7C159.3,75.4,158.8,73.4,159.6,72.7z"/>
	<path class="st0" d="M180.4,82.2c0,0,1-0.9,1.6-1c0.7-0.1,1.6,0,1.6,0s0.7,2.2,0,2.5c-0.7,0.3-2.1,0.8-2.1,0.8
		S180.6,82.9,180.4,82.2z"/>
	<path class="st0" d="M188.9,86.9c0,0,0.8-0.4,1.6-0.6c0.9-0.2,3.1,0,3.1,0s0.4-1,0-1.4c-0.4-0.5-1.1-1-1.1-1v-1.1
		c0,0,5.2-0.5,5.4-0.8c0.2-0.4,1.1-0.8,1.3-0.8c0.3-0.1,2.6,0,2.6,0s-1.2,2.4-1.6,2.4c-0.4,0-1.6,0.9-1.6,0.9s0.7,0.7,1.1,1
		c0.4,0.3,0.9,0.9,1,1.4c0.1,0.6-0.6,3.2-0.6,3.2s-2.8,3.2-3.3,3.2c-0.5,0-2.1,0.7-2.5,0c-0.4-0.7-1-2.5-1-2.5s-2.9-0.7-3.4-0.9
		C189.5,89.7,188.9,86.9,188.9,86.9z"/>
	<path class="st5" d="M182.2,75.1c0,0-0.5-0.8-1.1-1.2s-2.6-1.7-2.8-1.7c-0.2-0.1-2-0.5-2.1-1.1c-0.1-0.6-0.2-3.1,0.4-3.5
		c0.6-0.4,2.2-0.9,2.2-0.9s0.7,1.8,1,1.9c0.3,0.1,1.4,1.1,2.4,1.1c1.1,0,2.8,0.7,2.8,0.7s-1.3,1.2-1.6,1.2c-0.3,0-0.5,1.7-0.5,1.7
		l1.1,0.8C184,74.1,182.4,75.5,182.2,75.1z"/>
	<path class="st0" d="M170.3,62.6c0,0-0.4-1.2,0.7-1.5c1.1-0.3,1.7-1.3,1.7-1.3s1.8-2.1,2.2-2.2c0.4-0.1,4.4,0,4.4,0
		s-1.8,2.1-1.8,2.5c0,0.3,0.3,2.1,0.3,2.1s-0.9,1.8-1.3,1.9c-0.4,0.1-4.5,0.5-4.7,0.4C171.6,64.4,170.3,62.6,170.3,62.6z"/>
	<path class="st5" d="M169.3,59.5c0,0-2.4,0.5-2.4,1c0,0.5-1.7,2-1.4,2.1c0.3,0.1,1.9,0,1.9,0s1.5-0.9,1.9-1.2
		C169.7,61.1,170.6,59.2,169.3,59.5z"/>
	<path class="st0" d="M185.8,74.5c0,0,1.5-0.5,2.1-0.5h2.1c0,0-0.3,1.6-1.4,1.9c-1.2,0.4-2.7,0.4-2.7,0.4S184.5,74.8,185.8,74.5z"/>
	<path class="st5" d="M205,84.1c0,0,2.2-1,3.2-0.9c0.9,0.1,2.9-0.4,2.9-0.4s1.4-1.3,3-1.3h3.2c0,0-1.2,2.4-1.7,3
		c-0.4,0.5-2.5,1.2-2.5,1.2h-3.1c0,0-1.4,2.1-1.8,2.2c-0.4,0.1-1.7,1.2-2,1.2h-2.5C203.7,89,203.9,84.5,205,84.1z"/>
	<path class="st5" d="M206.6,81.2c0,0,1.6-1,3-1h3.5c0,0-1.2,1.9-2.1,2c-0.9,0.1-4.6,0.3-4.8,0.4C205.9,82.6,206.6,81.2,206.6,81.2z
		"/>
	<path class="st0" d="M205,75.9c0,0,1.2-1.8,1.5-1.9c0.3-0.1,1.5-0.5,3-0.6c1.5-0.1,3.5,0,3.5,0s-0.2,3.2-1.1,3.4
		c-0.9,0.2-4,1.1-5.2,1.4C205.6,78.4,205,75.9,205,75.9z"/>
	<path class="st0" d="M193.1,73c0,0,1.6,0.4,2.3,0.9c0.8,0.6,2.4,1.2,2.6,1.2c0.2-0.1,2.2,0.1,2.7,0.2c0.4,0.1,1.6-3.6,1.6-3.6
		s1.2-1.6,1.4-1.9c0.2-0.3-0.4-1.5-0.4-1.5h-4.5c0,0-0.9-0.4-1.2-0.3c-0.3,0.1-2.2,2-2.2,2L193.1,73z"/>
	<path class="st0" d="M188.9,69.8l1.7-1.9c0,0,0.9,0.1,1.7,0c0.8-0.1,0.7,1.5,0.7,1.5s-1.4,1.7-1.7,1.5c-0.2-0.2-1.8,0-1.8,0
		S188.1,70.7,188.9,69.8z"/>
	<path class="st0" d="M186.2,62.6c0,0,0.5,1.2,1.2,1.4c0.6,0.2,1.4,0.8,1.4,0.8l1.2,0.4c0,0-0.3-2.3-0.5-2.6
		C189.2,62.3,185.9,62.1,186.2,62.6z"/>
	<path class="st0" d="M198.4,55.7c0,0-2.3-1.3-2.9-1.5c-0.6-0.2-2.5,0-2.5,0l-0.7,1.5l-2.3,1.9c0,0-1.6,1.5-1.4,1.6
		c0.2,0,3.2,0.3,4.4,0.4c1.2,0.1,5-0.2,5-0.2l1.3,1.7c0,0,1.4,0.6,1.9,0.6s2.1-0.2,2.1-0.2s-0.5-2.5-0.8-2.8
		c-0.3-0.3-2.4-1.2-2.4-1.2S198.9,56,198.4,55.7z"/>
	<path class="st0" d="M210.7,62.6c0,0-2.9-0.4-3.3-1c-0.4-0.6-1-1.2-1-1.2l-1.8-2c0,0,3.7-1.2,4.6-1.3c0.9-0.1,2.6,1.5,2.8,1.7
		c0.1,0.2,0.4,1.3,0.4,1.3l0.6,1.1l1.2,1.1C214.2,62.3,211.4,62.7,210.7,62.6z"/>
	<path class="st5" d="M212.5,62.8c0,0,1.6-0.1,2.3,0c0.6,0.1,1.2,0.9,1.2,0.9l0.2,0.9c0,0-2.4,0.1-2.7,0c-0.3-0.1-1.1-0.3-1.4-0.6
		C211.7,63.9,212.5,62.8,212.5,62.8z"/>
	<path class="st5" d="M207.1,66.5c0,0,4.7-0.1,5.4,0c0.7,0.1,2,0.7,2,0.7l1.8,0.7c0,0-2,1-2.4,1.1c-0.4,0.1-2.8,0-3,0
		c-0.2,0-1.8-0.6-1.8-0.6s-1.3,0-2,0c-0.7-0.1-1.3-0.8-1.3-0.8S206.4,66.3,207.1,66.5z"/>
	<path class="st0" d="M167.1,77.4c0,0,4.3-1.9,5.4-1.6c1.1,0.2,6.2,0,6.2,0l4.1-0.7l-3.5-3.9l-2.6-1.7l-5.1,1.7l-3.4-1l-1.1,3.8
		V77.4z"/>
	<path class="st0" d="M207.1,68.3c0,0,3.5,1.8,3.5,1.8c0,0,2.4,1.6,3.3,1.5c0.9-0.1,1.4,2.3,1.4,2.3l2.1,3.5l1.3,0.8
		c0,0,4.7-1.4,5.8-0.8c1.1,0.6,3.6,1.8,4,1.5c0.4-0.3,4.9-1.2,6.8-0.7c1.9,0.5,5.9,0.8,5.9,0.8l3.2-1.6c0,0-3.1-2.9-3.6-3.5
		c-0.6-0.6-7.5-1.2-7.5-1.2s-8.7,0.1-9-0.1c-0.3-0.2-2.4-3.2-2.7-3.1c-0.3,0.1-4.3-1.1-4.3-1.1h-1.9H207.1z"/>
	<path class="st0" d="M240.1,83.2c0,0,1.1,2.3,2.4,2.7c1.3,0.4,5.6,0.9,5.6,0.9h3.6c0,0-2.2-3.5-3.6-3.6
		C246.7,83,240.1,83.2,240.1,83.2z"/>
	<path class="st0" d="M249.4,70.4c0,0-1.6-1.4-2.3-1.4c-0.7,0.1-1.9-0.7-1.9-0.7l-2.8,2.1c0,0-2.6-1.4-3.6-1.4c-1,0.1-5.2,0-5.2,0
		l-3.5,0.4l-5.2-0.1l-2.2-1.4c0,0,3.2-2.8,3.6-3.1c0.4-0.3,1.4-2,1.9-2c0.4,0,2.4-0.4,2.9,0c0.4,0.4,1.9,1,1.9,1l0.7-1l-1-1.7
		l-1.9-1.2l1-0.4l-1-1.6l-2.6,1.6h-3.3l-6.9-0.7l-2.6-6.3l-2.6-1.2c0,0-0.9-2.7,0-2.7c0.9,0,3.2-2.7,3.2-2.7s2.7-3.9,3.3-3.9
		c0.6,0,5,1.3,5,1.3s9.5,9.4,9.6,9.8c0.1,0.4,1.2,4.2,1.7,4.1c0.6-0.1,4.2,0.5,4.2,0.5s-0.7-2.9-1.2-3.5c-0.4-0.6-2.3-3-2.3-3
		l1.5-0.7c0,0,1.4-0.1,3.2,0.9l1.7,1l-0.5-3.7l-3.6-1.2l-4-0.4l-3.9-1.3c0,0-2.2-1.4-3.2-2.4c-1-1-1.2-2.7-1.2-2.7l4.3-1.9l5.6-1.4
		l2.3,0.7l3.6-0.7c0,0,3.8-1.3,5.6-1.7c1.9-0.4,4.3,0.7,8.1,0c3.7-0.7,4.9-0.9,6.3-0.1c1.4,0.8,3,0.8,3,0.8l3.2-1.4
		c0,0,2.7,0.1,6.6,0c3.9-0.1,5.6,0,5.6,0l3.5,2.4l4.5,1.3c0,0,3.3,0.1,3.7,0.6c0.4,0.4-2.6,2.7-2.6,2.7l-8.3,0.9c0,0-1,5.2-1.7,5.2
		c-0.7,0-3.9,1.2-3.9,1.2s-5.8,2.3-6.9,2.6c-1.2,0.3-9.8,1-9.8,1s-0.7,4.9-1.1,5.2c-0.4,0.3-2.2,2.1-2.2,2.1l0.6,1.3l-7.5,5.3
		c0,0,2,1.2,1.2,2.5L249.4,70.4z"/>
	<path class="st1" d="M263,60.9c0,0,1.4-2,2.3-2.3c0.9-0.3,5.2-1.2,5.2-1.2s6-2.2,7.2-2.4c1.2-0.3,4.3-2.4,4.3-2.4s-2.9-0.2-3-1.2
		c-0.1-1,0.7-2.2,0.7-2.2s1.3-2.6,2.3-2.9c1-0.3,5.6-1.7,5.6-1.7l2.1-1.9c0,0,9.8-2.9,11.4-3.6c1.6-0.7,12.7,0.4,16,0
		c3.3-0.4,5.3-0.9,5.3-0.9s1.7-1.2,4-1.7c2.3-0.6,10.8-1.2,14.4-0.7c3.6,0.4,6.2-1.1,6.2-1.1s20-0.5,21.7,0c1.7,0.5,7.9,1.5,8.3,1.5
		s3.5,3,2.7,2.9c-0.7-0.1-4,0.9-4,0.9s-14.7,0.7-15.4,1.2c-0.7,0.4-0.9,1.9-0.4,1.9c0.4,0,18-0.9,18.4-0.7c0.4,0.1-1.9,3.6-1.2,3.6
		c0.7,0,4.2-1.7,4.6-1.7c0.4,0,16.1,0.4,17,0.4c1,0-0.9,2.4-0.9,2.4s-5,1.6-6.5,2.2c-1.4,0.6-1.6,3.3-2.3,3.3
		c-0.7,0-4.6,1.7-4.6,1.7s-1,4-1.6,5.3c-0.6,1.3-2.4,2.9-2.4,2.9s1.2,2.4,1.6,3.2c0.4,0.7,2.7,3,2.7,4.8v1.8c0,0-4.7-1.5-5.2-1.8
		c-0.4-0.4-0.4,1.8-0.4,1.8l1.6,1.3c0,0,0.4,9.5,0,10.4c-0.4,0.9-1.6,3.5-1.6,3.5l-7.2-2.9c0,0-0.6,2.9,0,2.9c0.6,0,3.5,2.3,3.5,2.3
		l0.6,3.5c0,0-3.9-1.4-5-2.2c-1.2-0.7-1.3,0.6-1.3,0.6l0.9,0.9l4.3,2.3c0,0,1.3,3.2,1.4,4.3c0.1,1.2-0.3,2-0.3,2h-3.9l-2-1.9l-3-0.3
		l-2.7,0.7l-2.7,0.4l-0.4,1.9l4.3,0.7c0,0,4.6-0.6,6.2,0c1.6,0.6-2.2,3.5-2.6,4c-0.4,0.6-5.3,4-5.9,4s-1.9-0.3-6.8,0
		c-4.9,0.3-7.8,1.2-7.8,1.2l-2,2.9c0,0-2.9,2.6-3.3,3c-0.4,0.4-3.7,1-3.7,1h-5c0,0-0.7,2.9-1.4,3.3c-0.7,0.4-5.9,6.5-5.9,6.5
		s-2.9,7.1-3.9,8.8c-1,1.7-1.7,4.2-2.6,4.9c-0.9,0.7-3,2.9-3,2.9h-3.9l-8.5-6.2l-3-9.8c0,0-1.1-0.1-1.3-1.2c-0.1-1-2.7-9.6-2.7-9.6
		l0.1-7.7l3.5-2.7l1.6-0.9l0.1-4.3l-1-0.7l-2.3,1.7h-2.3l1-4.2l2-1.7l3.7-0.3l-3.2-2.4l-4.2-1c0,0-0.9-10.9-1.6-11.8
		c-0.7-0.9-3.3-3.4-3.3-3.4l-3.2-5.3l-4.5-1.8l-4.3-1.4l-3.2-0.1l-3.2,0.1H270l-3.2-2.1l-2.3-0.8l2-1.2l2.6-1.7l2.7-0.7l-0.9-1h-4.6
		l-1.4-1L263,60.9z"/>
	<path class="st1" d="M371.1,119h3.6v1.9h2.2l4.3-1.9l7.8-0.9l2.3,1.4l1.9,3.4l-3.3,6.5l-4.5,1.7l-4.6,1.7l-2.3-2l-5-1l-2.3-4.9
		v-0.7l-1-2.2l-2.4-0.9l1.3-1.7L371.1,119z"/>
	<path class="st5" d="M99.9,176.7l2.7,1.9l2.9,2.7l1,2.6v1.6l-3.3-2.2l-2.7-2.2l-0.6-2.9V176.7z"/>
	<path class="st6" d="M89.5,150.1v3.3v2.7l-3-3V149C86.5,149,88.4,148.7,89.5,150.1z"/>
	<path class="st7" d="M93.6,156.2l2.3,3.6v3.2l-2.3-2l-2.2-2.2L93.6,156.2z"/>
	<path class="st6" d="M40.5,152.6l2.9-2.9l2.7-2.2l1.2,1.4l-1.9,2.5l-1.5,2.2h-2.7L40.5,152.6z"/>
	<path class="st0" d="M769.1,257.4v-7.3l1.5-3.2l2.6,2.3v4.4v3.8H769.1z"/>
	<path class="st0" d="M773.1,244.3l3.2-4.4h5.5l2.4-2.9l2.3-3.8c0,0,0.6,3.2,2.3-1.7l1.7-5v-3.5h4.7l3.2,1.7V237l-1.7,5.3l-3.5,2
		l-9,4.1c0,0,1.4,3.2-1.5,1.5l-2.9-1.7l-4.1-1.2h-2.6V244.3z"/>
	<path class="st0" d="M789.8,219v-3.8l2.6-3.8V207h4.7l3.2,1.7l3.2,1.7l-3.2,5.2l-4.7,3.2H793H789.8z"/>
	<path class="st0" d="M791.2,203.5l-1.5-11.1v-1.7l-3.9-5.2v-11.4h2.7l1.2,7l4.4,9.6l2.5,1.5v3.8v6.1v1.5H791.2z"/>
	<path class="st3" d="M715.4,295.1l3.9-3.3h3.7v3.3l-3.8,2.7h-0.8L715.4,295.1z"/>
	<path class="st3" d="M745.6,283.5l1.6-5.1l1.7-2.3l1.9-1l2.3,4.2l-3.8,4.2v1.9l-3.8,0.8V283.5z"/>
	<path class="st3" d="M747.2,295.7v7l-1.6,4.3l2.8,3.3l3.5,2.5l1.4-4.9v-6.6v-5.6l-3.8-0.9L747.2,295.7z"/>
	<path class="st3" d="M755.2,309.5l0.8,3.3v1.2l2.7,2.1l1-3.3v-3.3l-1.4-1L755.2,309.5z"/>
	<path class="st3" d="M761.1,316.1v1.9l-1.4,3.5l-2.2,1v2.9h1.1l2.6-1.2c0,0,2.2-2.1,3.2-3.5l1-1.4v-2.1L761.1,316.1z"/>
	<path class="st3" d="M749.4,312.8l4.7,1.6v1.7l-2.4,0.8l-2.4-0.8l-0.6-1.3L749.4,312.8z"/>
	<path class="st3" d="M741,325.4l2.1-4.7l2.5-2.1h2.2l1,1.2l-1,3.5l-2.2,2.1l-0.7,3.5H741V325.4z"/>
	<path class="st3" d="M754.1,332l5.5-3.1l1.7-3.5h2.4l1.2,1.2l0.3,2.1v3.3l-0.3,3.9l-2.3,0.8l-3.1-1.5v-1.6l-4.5,1.6h-1V332z"/>
	<path class="st1" d="M868.7,122.1c-1.2-1.2-24.2-11.3-24.9-11.5c-0.8-0.2-12.5-2.7-13-1.9c-0.6,0.8-1,4-1.7,3.8
		c-0.8-0.2-2.1-0.8-2.1-0.8l-1.5-1.7c0,0-10.9,0.4-12.1,0.4c-1.1,0-3.5,2.3-4.4,2.3c-1,0-6.7-7.1-7.7-7.3c-1-0.2-17.3-0.8-17.5-1
		c-0.2-0.2-0.7-2.5-2.1-2.9c-1.3-0.4-14.2-5.2-15.5-5.2h-13.1c-1.3,0-3.1,4-3.1,4s-12.5,0.4-13.6,0.6c-1.2,0.2-1.7,1-2.7,1
		c-1,0-7.1-9.2-8.4-9.6c-1.3-0.4-8.1-1.2-9.8-1c-1.7,0.2-3.3,1.7-4.6,1.5c-1.3-0.2-5.4,0.4-6.5-0.4c-1.2-0.8-2.7-0.6-3.8-1.2
		c-1.2-0.5-10.4-0.7-11.3-0.9c-1-0.2-2.5-2.1-3.6-1.9c-1.2,0.2-5.9,2.9-6.7,2.7c-0.8-0.2,2.7-2.7,2.7-2.7s5.9-4,6.3-5.6
		c0.4-1.5-2.3-3.5-3.3-4.8c-1-1.3-3.1-2.5-4.2-2.7c-1.2-0.2-6.9-0.8-8.8-1.5c-1.9-0.8-3.3-2.9-4.8-3.3c-1.5-0.4-3.5-0.2-5.2,0
		c-1.7,0.2-5.6,4.6-6.5,4.8c-1,0.2-12.7,1.2-13.4,1.2c-0.8,0-5.8,3.8-7.3,4c-1.5,0.2-5.2,1.5-6.3,2.7c-1.2,1.2-2.3,5.4-3.8,5.4
		c-1.5,0-6.1-0.4-7.1,0.8c-1,1.2-3.3,1.9-2.1,2.7c1.2,0.8,7.7,5.4,6.7,5.8c-1,0.4-4.3-1.2-7-1.9c-2.8-0.8-5.1-1-5.6-0.6
		c-0.6,0.4-1.5,3.3-2.7,3.1c-1.2-0.2-1.9-5-2.7-5.2c-0.8-0.2-3.1,0.8-3.1,3.3c0,2.5,1.7,6.5,2.9,9.2c1.2,2.7,4.6,4.6,6.3,5.2
		c1.7,0.6,2.9,2.7,1.9,3.1c-1,0.4-4.4-0.2-5,0.2c-0.6,0.4-3.1,5.8-4.8,6.5c-1.7,0.8-5,1.3-4.6,0.8c0.4-0.6,3.3-5.4,3.1-8.4
		c-0.2-3.1-2-7.3-3.1-9.6c-1.1-2.3,0.4-5.4,0-7.7c-0.4-2.3-6.5-2.3-8.4-1.5c-1.9,0.8-4,3.8-4.4,5.8c-0.4,1.9,2.3,6.7,4.2,8.6
		c1.9,1.9,0.8,3.8-0.2,3.8c-1,0-6.9-5-10.4-6.7c-3.5-1.7-8.1-1.5-9.8-1.3c-1.7,0.2-2.5,3.1-1.2,2.9c1.3-0.2,4.6,2.7,4.6,3.3
		c0,0.6-12.3,1-14,1.3c-1.7,0.4-3.8-0.8-4.4-1c-0.6-0.2-14.6,9.2-15.4,9c-0.8-0.2-1-5.2-1.2-5.9c-0.2-0.8-3.3-1.9-3.8-2.1
		c-0.6-0.2-0.8,3.1-1,4.4c-0.2,1.3-3.5,4.4-3.5,4.4l-5.4,4.6c0,0,1.5,3.1,0,3.1c-1.5,0-5.8-2.5-7.1-2.5c-1.3,0,0.4,4.1,0,4.4
		c-0.4,0.3-2.3,0-2.3,0s-6.3-9.3-5.6-10.1c0.8-0.8,5.8-0.6,6.7,0.8c1,1.3-0.2,1.7,1,1.3c1.2-0.4,5.6-1,5.6-1s2.7-2.9,2.7-3.6
		c0-0.8-18.8-12.9-20-13.2c-1.2-0.4-0.4,0.4-2.9,0.4c-2.5,0-3.5-0.2-3.5-0.2s-0.8,0.2,0-1.5c0.8-1.7-4.6-4.2-5.2-4.4
		c-0.6-0.2-4.6,1.7-5.2,1.7c-0.6,0-3.5-0.6-3.5-0.6l-6.9,3.5c0,0-4.6,0.8-5.3,1.5c-0.8,0.8-4.4,1-5,1.5c-0.6,0.6-6.3,5-5,5.6
		c1.3,0.6,1,3.8,1,3.8s-12.3,13.8-14,15.4c-1.7,1.5-8.4,7.5-8.6,8.4c-0.2,1-1.9,3.6-1,4.2c1,0.6,2.7,1.7,2.7,2.5
		c0,0.8,0.8,7.9,1.5,8.1c0.8,0.2,3.6,0.4,3.6,0.4s4-2.5,4.6-2.5c0.6,0,3.4,6.7,4,7.7c0.6,1,0.8,4.8,0.8,4.8l3.1,1.3
		c0,0,5.2-1.2,6.5-1.9c1.3-0.8,1.2-6.7,1.2-7.7c0-1,5.6-6.1,5.8-7.1c0.2-1-2.3-7.3-2.5-8.3c-0.2-1,0.8-5.4,1.7-6.3
		c1-1,2.9-1,3.8-2.1c1-1.1,5-6.7,5.9-7.5c1-0.8,4.6-1.2,4.6-1.2s1.7,2.5,0.6,3.1c-1.2,0.6-6.3,4.2-6.7,5.2s-3.6,10.4-2.5,11.5
		c1.1,1.2,4.6,3.8,6.5,4.2c1.9,0.4,8.1-1.7,10-1.3c1.9,0.4,4.2,2.1,4.2,2.1s-7.1,1-8.4,1.5c-1.3,0.6-3.6,1.1-3.6,1.1
		s-0.6,7.1-1.5,7.1c-1,0-4.8,1.5-4.8,1.5s-3.5,8.3-4.4,8.6c-1,0.4-21.1,1-22.8,0.4l-1-10c0,0-2.9,1.7-3.5,2.5
		c-0.6,0.8-1,8.3-1.7,8.8c-0.8,0.6-7.7,4.6-8,5.4c-0.3,0.8-9.3,12.5-10.8,12.3c-1.5-0.2-6.1-1-6.5,0.2c-0.4,1.2-0.8,3.1-1.9,3.6
		c-1.2,0.6-6.5,1.7-6.5,1.7s1.2,1.5,1.9,1.7c0.8,0.2,2.5,0,2.5,0s3.3,5.4,4,5.9c0.8,0.6-0.2,7.5-0.4,8.1c-0.2,0.6-4,0-5.2,0
		c-1.2,0-4.8-1-4.8-1s-7.5,2.3-8.4,2.5c-1,0.2-2.7,1.9-1.9,2.9c0.8,1,1.9,2.7,1.9,2.7l-1.2,4.2l-2.5,5.4c0,0,3.5,5.4,4.6,6.5
		c1.2,1.2,14.6-0.4,15.4,0c0.8,0.4,5.9-5,6.5-5.8c0.6-0.8,0-6.3,0-6.3s7.5-4,8.4-5.4c1-1.3,1-4.4,1-4.4s8.8,0.4,10,0.2
		c1.2-0.2,5.9-0.8,5.9-0.8s5.8,6.7,7.1,8.1c1.3,1.3,9.4,5.8,9.4,5.8s1.9,5,2.3,4.2c0.4-0.8,0.4-5.2,0.4-5.2s0.4,0.2,1.5-0.2
		c1.2-0.4-10.4-7.9-11.1-10c-0.8-2.1-2.1-5.6-2.1-5.6s13.4,6.5,14.6,8.4c1.2,1.9,1,8.8,1.9,9.2c1,0.4,3.6,3.6,4,4.6
		c0.4,1,1.9,4.8,2.9,5c1,0.2,3.1,1.3,3.1,1.3s4.4-4.6,4.4-5.2c0-0.6-3.1-4.2-3.5-5.2c-0.4-1,6.3-3.8,7.9-4c1.5-0.2,4.6,1.2,4.6,1.2
		s-5.2,4-4,5.2c1.2,1.2,3.5,9,5,9.2c1.5,0.2,16.5-1.2,17.7,0c1.2,1.1,1.7,2.6,1.7,2.6s-0.9,14.1-4.3,14.1c-3.5,0-10.4,0.3-8.9,0.9
		c1.4,0.6,5.4,6.7,10.7,9.5c3.3,1.7,11.6,16.2,11.9,18.8c0.3,2.6,12.1,29,14.5,30.2c2.3,1.2,26.8-9.8,29.4-10.9
		c2.6-1.2,11.8-14.4,11.8-15.8c0-1.4-6.3-12.4-6.9-13.2c-0.6-0.9-10.4,4.6-12.1,4c-1.7-0.6-10.7-16.7-9.5-17.3c1.2-0.6,5.8,2,5.8,2
		s4.3,8.1,5.8,8.3c1.4,0.3,10.1-1.7,11.2-1.4c1.2,0.3,1.7,5.2,3.5,5.2c1,0,6.9,0.3,12,0.7l10.6-12.1v-10.3v-5.2v-8.7l9.3-4.7l7-6.6
		l3.9-6.6v-16.7v-9.4l7.8-4.1l8.1-1.1l2.9-8.8v-13.6l6.1-8.8h5.4h7v3.9l8.5,8.2h4.7l6.9,4.4h10.2l9.3,5.9l7.2,0.8l7.2,4.6h9.2
		l7.7-4.6l4.4-6.8l4.4-4.4v-3.3l-4.4-11.1l-7.8-1.8l-0.8-6.8l4.2-5.4h4.4l4.4-8.4h8.4l4.7,5.2h6.6l10.1,8.6l7.1,2.3h9.1l2.2,6.9
		c4.6-0.4,10.3-0.7,10.8-0.4c0.8,0.6,2.1,2.9,4,3.1c1.9,0.2,6.7-3.4,8.1-3.2c1.3,0.2-1.9-3.1-1.9-3.1s3.3-4.6,4.6-4.6
		c1.3,0,3.3,1.7,4.6,2.3c1.3,0.6,8.1-5.2,8.1-5.2s1.2,1.3,1.2,1.9c0,0.6-7.3,11.9-8.8,12.9c-1.5,1-3.8,3.3-3.8,3.3
		s-1.5,8.8-0.8,10.4c0.8,1.5,7.5,18.4,8.4,16.9c1-1.5,6.3-10.9,6.7-12.3c0.4-1.3-1.2-3.1,0-4.8c1.1-1.7,3.8-3.5,3.8-4.6
		c0-1.2-1.5-5-1.7-6.5c-0.2-1.5-2.3-2.7-2.3-2.7s0.6-4,2.5-4.4c1.9-0.4,2.3-1.9,5.8-2.1c3.5-0.2,5.2-0.4,5.2-0.4s2.9,1.3,3.6,1.3
		c0.8,0,4.8-8.1,5.9-7.9c1.2,0.2,4,0.8,4.8,0.4c0.8-0.4,3.3-1.3,3.3-1.3s3.1-0.8,3.1-1.9c0-1.2-2.9-6.9-3.8-7.3
		c-1-0.4-2.3-1.7-2.3-1.7s1.5-1.7,2.3-2.1c0.8-0.4,1.2-3.3,1.2-3.3s1.3-1.3,2.7,0c1.3,1.3,11.3,8.3,14,8.6l2.7,0.4v-4.8
		c0-1,1.5-3.6,1.5-3.6S869.8,123.2,868.7,122.1z"/>
	<path class="st0" d="M777.9,149l-7.1-2.3l-10.1-8.6h-6.6l-4.7-5.2H741l-4.4,8.4h-4.4l-4.2,5.4l0.8,6.8l7.8,1.8l4.4,11.1v3.3
		l-4.4,4.4l-4.4,6.8l-7.7,4.6h-9.2l-7.2-4.6l-7.2-0.8l-9.3-5.9h-10.2l-6.9-4.4h-4.7l-8.5-8.2v-3.9h-7h-5.4l-6.1,8.8V180l-2.9,8.8
		l-8.1,1.1l-7.8,4.1v9.4v16.7l-3.9,6.6l-7,6.6l-9.3,4.7v8.7v5.2v10.3l-10.6,12.1c3.8,0.3,7.1,0.6,7.6,0.9c1.2,0.7,10.1,9.3,10.1,9.3
		l-2.3,1.7c0,0,3.2,3.7,4.6,4c1.4,0.3,6.9-2,6.9-2s1.7,12.7,2,13.8c0.3,1.2,8.3,26.2,10.9,25.9c2.6-0.3,5.2-5.2,6.6-8.6
		c1.4-3.5,0.6-11.2,2-13.2c1.4-2,5.8-2,6.3-3.7c0.6-1.7,3.2-7.8,3.2-7.8s7.2-0.9,7.5-2c0.3-1.2,1.4-4.6,1.4-4.6l8.1-3.5
		c0,0,2,6.6,3.5,6.9c1.4,0.3,7.2,5.8,7.2,5.8s-1.4,8.1-0.6,8.3c0.9,0.3,8.6-0.6,8.6-0.6s2.4,10,0.8,11.6c0,0,1.4,11.8,2.5,14.3
		c1.1,2.5,6,7.1,6.8,9.1c0.8,2,0,5.9,1.5,7.7c1.5,1.7,6.5,5.3,7.8,5.9c1.2,0.6,0.7-3.6,0.9-4.8c0.2-1.2-1.4-0.7-1.4-3.6
		c0-3-0.1-3.5-0.6-4.8c-0.5-1.3-8.2-8.8-9.3-9.7c-1.1-0.9-2.6-2.8-2.9-3.8c-0.3-1.1-0.2-6.1-0.2-7.2c0-1.1,3-4.8,3.1-4.8
		c0.2,0,5.6,6.5,6.8,7.4c1.2,0.9,3.7,7.3,5,7.7c1.2,0.4,9.2-8.7,10.2-10.6c1-1.8,1.8-10,0-11.8c-1.8-1.8-6.3-4.3-6.8-6.4
		c-0.5-2.1-2-5.8-1.1-7.2c1-1.4,4.5-4.1,5.3-4.3c0.8-0.2,3.7,1.9,4.7,1.8c1-0.1,3.2-0.9,4.3-1.1c1.2-0.2,11.3-5.2,13.4-7.7
		c2.1-2.5,10.7-15.7,10.5-17.8c0,0-2.5-3.8-1.9-5c0.6-1.2,2-4,2-4l-8-11.2c0,0,7.1-6.3,6-7.5c-1.1-1.2-14.4-1.7-13.8-3.2
		c0.6-1.4,6.4-9.2,7.2-9.2c0.9,0,2.3,6,2.3,6s7.2-1.7,8.3-0.9c1.2,0.9,1.2,5.5,2,7.2c0.9,1.7,4.3,10.1,5.8,9.8
		c1.4-0.3,2.6-4.3,5.8-4.6c3.2-0.3,0-6.3,0-8.9c0-2.6-4.3-3.5-3.7-6.6c0.6-3.2,3.2-8.9,7.2-9.5c4-0.6,9.2-4.9,11.8-8.3
		c2.6-3.5,5.8-15.5,4.3-20.2c-1.4-4.6-1.7-11.2-1.7-11.2l-6.1-1.5c0,0-4.4,0.6-4.4,0c0-0.6-2.9-3.8-2.9-3.8s14.2-15.2,15.5-15.7
		c0.5-0.2,2.8-0.5,5.6-0.8L787,149H777.9z"/>
	<path class="st0" d="M815.5,165.4l7,2.2l2.2,4.4l5.6,0.9v4.8l-5.6,14l-9.2-13.2l-0.4-5.5L815.5,165.4z"/>
	<path class="st0" d="M718.7,351.6l3.1,1.7h3.9l3.4,0.6l3.2-2.3l3.5-4.5l3.3-3.4l0.5-2.2l2.8-2l1.8-1.6c0,0-3-1.7-4-1.1
		c-1,0.6-2.7,1.7-2.7,1.7l-6,5.7l-2.3,1.1l-3.7,4.4l-3,0.5C722.4,350.1,718.9,351.2,718.7,351.6z"/>
	<path class="st1" d="M173.9,243.4h-9.3l-12.8,3l-4.3-3l-7.4-2l-9.3,2l-18.1-1.2c0.5,2.4,0.9,5.4,2.1,6.3c1.7,1.3,2.4,7.9,2.7,8.8
		c0.3,0.9,0.9,2.9,2.3,3.5c1.4,0.6,3.3,5.9,3.7,7.3c0.4,1.4,4.6,4.7,5.6,5c1,0.3,1.4-2.3,1.4-2.3s-3.5-4.6-3.7-5.8
		c-0.3-1.2-1.6-4.7-1.7-5.2c-0.1-0.4-3.2-10.4-2.6-10.4c0.6,0,1.3,0.3,1.3,0.3s4,9.5,4.6,10.8c0.6,1.3,7.5,9.1,8.3,9.9
		c0.9,0.9,2.7,12.5,3.2,13c0.4,0.4,8.9,8.1,9.8,8.8c0.9,0.7,6.3,3.9,7.6,4.6c1.3,0.7,4.2,0.9,4.6,0.9c0.4,0,9.5,0.1,9.8,0.7
		c0.3,0.6,5,5.5,5.3,6.2c0.3,0.7,7.8,0.7,8.8,1c1,0.3,2.7,4.2,3,5.3c0.3,1.2,8.9,10.7,9.9,11.7c1,1,6,1.1,6.8,1c0.7-0.1,2.4-1,3-1.6
		c0.6-0.6,0.6-2.6,0.6-2.6s-1.4-1.6-2.2-1.6h-3.5c0,0-5.2-3.5-5.6-4.5c-0.4-1,1-14.5,0.7-15.1c-0.3-0.6-10.5-2.3-10.9-3.2
		c-0.4-0.9,0-3.6,0-3.6s3.2-7.2,3.2-8.1c0-0.9-3.4-3.3-3.4-3.3s-11.9,6.9-12.6,7.3c-0.7,0.4-11.4-0.7-11.9-1.6
		c-0.6-0.9,0.4-20.7,0.7-22.5c0.3-1.7,5.5-7.2,7.8-7.8c2.3-0.6,14.4-0.3,15.4-0.7c1-0.4,4.7-2.3,4.7-2.3l-7.2-6.2L173.9,243.4z"/>
	<path class="st0" d="M280.1,168.7l-6.8-8.5c0,0-2-10.9-2.4-11.5c-0.4-0.6-3.7-4-3.7-4s-2.4,2.7-2.9,3.2l-1.7,1.7l-5.5-0.6
		c0,0-1.4-9.2-2-9.6c-0.6-0.4-9.2-6.3-10.2-6.8c-1-0.4-7.6,1-8.2,1c-0.6,0-2.9,12.1-2.9,12.1s-1.6,2.2-1.9,2.6
		c-0.3,0.4-0.1,3.5,0.7,3.7c0.9,0.3,0.9,4.3,0.9,4.3l-2.2,5.3c0,0-3.7,2.6-4.3,3c-0.6,0.4-1.7,8.6-1.7,9.2c0,0.6-1.2,4.3-2.3,3.7
		c-1.1-0.6-1.7-4.5-1.7-4.5l-2.7-1.4c0,0-0.9-4.9-1.3-6.2c-0.4-1.3-7.5-5.2-7.5-5.2s-7.6-5.5-8.2-5.6c-0.6-0.1-5.8-2-5.8-2l-0.7-2.4
		c0,0-2.2-0.7-2.4-1.2c-0.3-0.4-0.4-4.2,0.4-5.2c0.9-1,10.8-14.2,11.7-14.7c0.9-0.4,4.6-0.9,4.6-0.9s9.1-9.6,10.2-10.4
		c1.2-0.7,5.6-1.7,5.6-1.7s5.9-1.9,6.5-2.3c0.6-0.4,1.6-9.6,1-10.4c-0.6-0.7-6.2-1.4-6.8-1.2c-0.6,0.3-0.7,3.3-2.3,3.9
		c-1.6,0.6-5.9,4.6-5.9,4.6s-0.6-6.6-1-6.6c-0.4,0-4-0.1-4-0.1s-1.2-3.1-1.6-2.8c-0.4,0.3-2,0-2,0s-0.1-5.7-0.7-7.3
		c-0.6-1.6-3.7-3-3.7-3s-4.5,6-4.6,6.5c-0.1,0.4,1.4,2.3,1.4,2.3l4.2,1.6c0,0-1.6,2.4-1.7,3.2c-0.1,0.7-3,1.6-3,1.6l-1.3-2.4l-4.7-3
		c0,0-4.3,2.6-4,3.5c0.3,0.9,1.9,1.4,1.9,1.4l-1.4,1.6c0,0-7.3,0.6-9.1,0.6s-9.8-2.2-10.7-2c-0.9,0.1-2,3-2,3s-5,0.3-5.6,0.1
		c-0.6-0.1-11.4-1.2-11.2-1.6c0.1-0.4,1.6-1.9,1.6-1.9l-0.6-1.3l-10.9-1.3c0,0-1.3-1.4-2.7-2.3c-1.4-0.9-10.9-0.9-10.9-0.9
		s-1.1-1.6-2.3-1.9c-1.1-0.3-13.5,0.6-13.5,0.6s-5.6,3.7-6.5,3.9c-0.9,0.1-9.4-0.7-9.4-0.7s-5.2-3.6-6.6-3.7
		c-1.4-0.1-11.8-1.2-12.7-1.4c-0.9-0.3-4-1.6-4-1.6s-2.4,0.9-2.9,0.9c-0.4,0-2.2-1.4-3.3-2.2c-1.2-0.7-14.7-1.7-15.8-1.2
		c-1.2,0.6-4.3,2.2-4.3,2.2S40.6,97,40,97c-0.6,0-1.7,3.7-3,4.2c-1.3,0.4-6.5,0.7-6.6,1.3c-0.1,0.6-0.9,2.7-0.9,2.7s4.2,2.4,4.5,3
		c0.3,0.6-0.4,2.7,0.6,3.2c1,0.4-2.4,1.3-3.2,1.2c-0.7-0.1-5,1.4-5,1.4s-2.7,3-2.9,3.6c-0.1,0.6,0,1.7,0,1.7s9.2-0.1,9.2,0.7
		c0,0.9-0.4,3.3-0.4,3.3s-5.9,2.2-6.2,3c-0.3,0.9-5.9,5.2-6.2,5.9c-0.3,0.7-0.1,8.2,0.7,8.8c0.9,0.6,2,1.3,2,1.3s0,2.4,0.1,3
		c0.1,0.6,9.9,1.3,9.9,1.3s0.4,3.9-0.4,4.2c-0.9,0.3-7.3,3-9.2,3.5c-1.9,0.4-10.8,7.9-10.8,7.9s-1,0.9,0,1c1,0.1,8.9-4.3,9.4-4.3
		s6-0.3,8.1-0.4c2-0.1,8.1-5.2,8.9-6c0.9-0.9,2.9-4.5,2.9-4.5s3.7-1.4,4.7-1.9c1-0.4,2.2-2.9,2.2-2.9l5.9-7.9c0,0,2.9,1,2.4,1.4
		c-0.4,0.4-6.3,5.5-5.9,5.8c0.4,0.3-1.3,2.7-0.4,2.4c0.9-0.3,6.5-3.3,7.6-3.3c1.2,0,2.7-0.3,2.7-0.3s1.7-2.9,2.3-2.9
		c0.6,0,2.9,2.6,3.5,2.7c0.6,0.1,13.1-0.3,14.4,0.1c1.3,0.4,3.9,3.2,3.9,3.2s4.6,0.3,5.8,0.3c1.2,0,2.9,2.3,2.9,2.3
		s4.2,10.5,5.2,11.9c1,1.4,2.4,15.5,2.9,16.1c0.4,0.6,2.4,1,3.3,1.7c0.9,0.7,1.9,4.5,2.4,4.7c0.6,0.3,2.4,3.3,2.4,3.3s-3,3-3.6,3.5
		c-0.6,0.4-0.1,14-0.9,15c-0.7,1-3.5,3.6-3.5,4.5c0,0.9-0.7,11.8-0.3,14.4c0.4,2.6,5.3,15.8,6.8,16c1.4,0.1,2.6-0.3,3.6,1.1
		c0.3,0.5,0.6,1.5,0.8,2.8l18.1,1.2l9.3-2l7.4,2l4.3,3l12.8-3h9.3l10.5,3l7.2,6.2c0,0,7.5,0,8.5,0.7c1,0.7,3.9,10.7,4.6,11.5
		c0.7,0.9,4.2,3.7,4.5,3.2c0.3-0.6,1.9-4,1.9-4s-1.4-9.6-1.4-10.2c0-0.6,0.6-4.2,0.3-5c-0.3-0.9,9.1-8.1,10.4-8.9
		c1.3-0.9,3.2-3.2,3.2-3.2s2.3-8.5,3-8.9c0.7-0.4,7.2-9.2,8.1-9.5c0.9-0.3,5.3-2.7,6.2-3.3c0.9-0.6,1.2-3,1.7-3.9
		c0.6-0.9,5.5-4.5,5.5-4.5s4.6,0.4,5.3,0c0.7-0.4,3.9,0,3.9,0l8.1-5c0,0-6.5-5.8-7.3-5.6c-0.9,0.1-1-5.2-0.6-5.9
		c0.4-0.7,1.7-3,1.7-3s-0.1-2.4,0.4-2.7c0.6-0.3,7.1-1,7.1-1s3.5,1,4.3,1c0.9,0,12.4-8.3,12.4-8.3s-0.3-4.9,0-5.3
		C283.4,170.1,280.1,168.7,280.1,168.7z"/>
	<path class="st0" d="M428.1,188.4l5.4,1.6l2.8-0.8c0,0,2.2,0.6,3.5,0l1.3-0.6V185l-2-2.3l-4.5-1.7
		C434.7,180.9,429.4,187,428.1,188.4z"/>
</g>
</svg>
